<mxfile host="app.diagrams.net" modified="2022-03-15T23:43:31.076Z" agent="5.0 (Windows)" etag="ynN_8avnqI8cZgaHxRRo" version="17.1.3" type="github">
  <diagram name="Page-1" id="e56a1550-8fbb-45ad-956c-1786394a9013">
    <mxGraphModel dx="1178" dy="1301" grid="0" gridSize="10" guides="1" tooltips="1" connect="1" arrows="1" fold="1" page="1" pageScale="1" pageWidth="1100" pageHeight="850" background="none" math="0" shadow="0">
      <root>
        <mxCell id="0" />
        <mxCell id="1" parent="0" />
        <mxCell id="bIJiC8jtkmw2KY-kUC_S-213" value="" style="group" parent="1" vertex="1" connectable="0">
          <mxGeometry x="245" y="-710" width="626" height="532.3199999999999" as="geometry" />
        </mxCell>
        <mxCell id="bIJiC8jtkmw2KY-kUC_S-167" value="&lt;b&gt;lehrkraft&lt;/b&gt;" style="swimlane;html=1;fontStyle=0;childLayout=stackLayout;horizontal=1;startSize=26;fillColor=#e0e0e0;horizontalStack=0;resizeParent=1;resizeLast=0;collapsible=1;marginBottom=0;swimlaneFillColor=#ffffff;align=center;rounded=0;shadow=0;comic=0;labelBackgroundColor=none;strokeWidth=1;fontFamily=Verdana;fontSize=14;swimlaneLine=1;" parent="bIJiC8jtkmw2KY-kUC_S-213" vertex="1">
          <mxGeometry x="457" y="110" width="160" height="82" as="geometry" />
        </mxCell>
        <mxCell id="bIJiC8jtkmw2KY-kUC_S-168" value="kuerzel" style="shape=partialRectangle;top=0;left=0;right=0;bottom=1;html=1;align=left;verticalAlign=middle;fillColor=none;spacingLeft=34;spacingRight=4;whiteSpace=wrap;overflow=hidden;rotatable=0;points=[[0,0.5],[1,0.5]];portConstraint=eastwest;dropTarget=0;fontStyle=5;" parent="bIJiC8jtkmw2KY-kUC_S-167" vertex="1">
          <mxGeometry y="26" width="160" height="30" as="geometry" />
        </mxCell>
        <mxCell id="bIJiC8jtkmw2KY-kUC_S-169" value="PK" style="shape=partialRectangle;top=0;left=0;bottom=0;html=1;fillColor=none;align=left;verticalAlign=middle;spacingLeft=4;spacingRight=4;whiteSpace=wrap;overflow=hidden;rotatable=0;points=[];portConstraint=eastwest;part=1;" parent="bIJiC8jtkmw2KY-kUC_S-168" vertex="1" connectable="0">
          <mxGeometry width="30" height="30" as="geometry" />
        </mxCell>
        <mxCell id="bIJiC8jtkmw2KY-kUC_S-170" value="name" style="shape=partialRectangle;top=0;left=0;right=0;bottom=0;html=1;align=left;verticalAlign=top;fillColor=none;spacingLeft=34;spacingRight=4;whiteSpace=wrap;overflow=hidden;rotatable=0;points=[[0,0.5],[1,0.5]];portConstraint=eastwest;dropTarget=0;" parent="bIJiC8jtkmw2KY-kUC_S-167" vertex="1">
          <mxGeometry y="56" width="160" height="26" as="geometry" />
        </mxCell>
        <mxCell id="bIJiC8jtkmw2KY-kUC_S-171" value="" style="shape=partialRectangle;top=0;left=0;bottom=0;html=1;fillColor=none;align=left;verticalAlign=top;spacingLeft=4;spacingRight=4;whiteSpace=wrap;overflow=hidden;rotatable=0;points=[];portConstraint=eastwest;part=1;" parent="bIJiC8jtkmw2KY-kUC_S-170" vertex="1" connectable="0">
          <mxGeometry width="30" height="26" as="geometry" />
        </mxCell>
        <mxCell id="bIJiC8jtkmw2KY-kUC_S-178" value="&lt;b&gt;unterricht&lt;/b&gt;" style="swimlane;html=1;fontStyle=0;childLayout=stackLayout;horizontal=1;startSize=26;fillColor=#e0e0e0;horizontalStack=0;resizeParent=1;resizeLast=0;collapsible=1;marginBottom=0;swimlaneFillColor=#ffffff;align=center;rounded=0;shadow=0;comic=0;labelBackgroundColor=none;strokeWidth=1;fontFamily=Verdana;fontSize=14" parent="bIJiC8jtkmw2KY-kUC_S-213" vertex="1">
          <mxGeometry x="233" width="160" height="134" as="geometry" />
        </mxCell>
        <mxCell id="bIJiC8jtkmw2KY-kUC_S-181" value="id" style="shape=partialRectangle;top=0;left=0;right=0;bottom=1;html=1;align=left;verticalAlign=middle;fillColor=none;spacingLeft=60;spacingRight=4;whiteSpace=wrap;overflow=hidden;rotatable=0;points=[[0,0.5],[1,0.5]];portConstraint=eastwest;dropTarget=0;fontStyle=5;" parent="bIJiC8jtkmw2KY-kUC_S-178" vertex="1">
          <mxGeometry y="26" width="160" height="30" as="geometry" />
        </mxCell>
        <mxCell id="bIJiC8jtkmw2KY-kUC_S-182" value="PK" style="shape=partialRectangle;fontStyle=1;top=0;left=0;bottom=0;html=1;fillColor=none;align=left;verticalAlign=middle;spacingLeft=4;spacingRight=4;whiteSpace=wrap;overflow=hidden;rotatable=0;points=[];portConstraint=eastwest;part=1;" parent="bIJiC8jtkmw2KY-kUC_S-181" vertex="1" connectable="0">
          <mxGeometry width="56" height="30" as="geometry" />
        </mxCell>
        <mxCell id="bIJiC8jtkmw2KY-kUC_S-199" value="klasse" style="shape=partialRectangle;top=0;left=0;right=0;bottom=0;html=1;align=left;verticalAlign=top;fillColor=none;spacingLeft=60;spacingRight=4;whiteSpace=wrap;overflow=hidden;rotatable=0;points=[[0,0.5],[1,0.5]];portConstraint=eastwest;dropTarget=0;" parent="bIJiC8jtkmw2KY-kUC_S-178" vertex="1">
          <mxGeometry y="56" width="160" height="26" as="geometry" />
        </mxCell>
        <mxCell id="bIJiC8jtkmw2KY-kUC_S-200" value="FK&lt;span style=&quot;white-space: pre&quot;&gt;	&lt;/span&gt;" style="shape=partialRectangle;top=0;left=0;bottom=0;html=1;fillColor=none;align=left;verticalAlign=top;spacingLeft=4;spacingRight=4;whiteSpace=wrap;overflow=hidden;rotatable=0;points=[];portConstraint=eastwest;part=1;" parent="bIJiC8jtkmw2KY-kUC_S-199" vertex="1" connectable="0">
          <mxGeometry width="56" height="26" as="geometry" />
        </mxCell>
        <mxCell id="bIJiC8jtkmw2KY-kUC_S-183" value="lehrkraft" style="shape=partialRectangle;top=0;left=0;right=0;bottom=0;html=1;align=left;verticalAlign=top;fillColor=none;spacingLeft=60;spacingRight=4;whiteSpace=wrap;overflow=hidden;rotatable=0;points=[[0,0.5],[1,0.5]];portConstraint=eastwest;dropTarget=0;" parent="bIJiC8jtkmw2KY-kUC_S-178" vertex="1">
          <mxGeometry y="82" width="160" height="26" as="geometry" />
        </mxCell>
        <mxCell id="bIJiC8jtkmw2KY-kUC_S-184" value="FK" style="shape=partialRectangle;top=0;left=0;bottom=0;html=1;fillColor=none;align=left;verticalAlign=top;spacingLeft=4;spacingRight=4;whiteSpace=wrap;overflow=hidden;rotatable=0;points=[];portConstraint=eastwest;part=1;" parent="bIJiC8jtkmw2KY-kUC_S-183" vertex="1" connectable="0">
          <mxGeometry width="56" height="26" as="geometry" />
        </mxCell>
        <mxCell id="bIJiC8jtkmw2KY-kUC_S-201" value="fach" style="shape=partialRectangle;top=0;left=0;right=0;bottom=0;html=1;align=left;verticalAlign=top;fillColor=none;spacingLeft=60;spacingRight=4;whiteSpace=wrap;overflow=hidden;rotatable=0;points=[[0,0.5],[1,0.5]];portConstraint=eastwest;dropTarget=0;" parent="bIJiC8jtkmw2KY-kUC_S-178" vertex="1">
          <mxGeometry y="108" width="160" height="26" as="geometry" />
        </mxCell>
        <mxCell id="bIJiC8jtkmw2KY-kUC_S-202" value="" style="shape=partialRectangle;top=0;left=0;bottom=0;html=1;fillColor=none;align=left;verticalAlign=top;spacingLeft=4;spacingRight=4;whiteSpace=wrap;overflow=hidden;rotatable=0;points=[];portConstraint=eastwest;part=1;" parent="bIJiC8jtkmw2KY-kUC_S-201" vertex="1" connectable="0">
          <mxGeometry width="56" height="26" as="geometry" />
        </mxCell>
        <mxCell id="bIJiC8jtkmw2KY-kUC_S-185" value="&lt;b&gt;klasse&lt;/b&gt;" style="swimlane;html=1;fontStyle=0;childLayout=stackLayout;horizontal=1;startSize=26;fillColor=#e0e0e0;horizontalStack=0;resizeParent=1;resizeLast=0;collapsible=1;marginBottom=0;swimlaneFillColor=#ffffff;align=center;rounded=0;shadow=0;comic=0;labelBackgroundColor=none;strokeWidth=1;fontFamily=Verdana;fontSize=14" parent="bIJiC8jtkmw2KY-kUC_S-213" vertex="1">
          <mxGeometry x="7" y="80" width="160" height="82" as="geometry" />
        </mxCell>
        <mxCell id="bIJiC8jtkmw2KY-kUC_S-186" value="kuerzel" style="shape=partialRectangle;top=0;left=0;right=0;bottom=1;html=1;align=left;verticalAlign=middle;fillColor=none;spacingLeft=34;spacingRight=4;whiteSpace=wrap;overflow=hidden;rotatable=0;points=[[0,0.5],[1,0.5]];portConstraint=eastwest;dropTarget=0;fontStyle=5;" parent="bIJiC8jtkmw2KY-kUC_S-185" vertex="1">
          <mxGeometry y="26" width="160" height="30" as="geometry" />
        </mxCell>
        <mxCell id="bIJiC8jtkmw2KY-kUC_S-187" value="&lt;b&gt;PK&lt;/b&gt;" style="shape=partialRectangle;top=0;left=0;bottom=0;html=1;fillColor=none;align=left;verticalAlign=middle;spacingLeft=4;spacingRight=4;whiteSpace=wrap;overflow=hidden;rotatable=0;points=[];portConstraint=eastwest;part=1;" parent="bIJiC8jtkmw2KY-kUC_S-186" vertex="1" connectable="0">
          <mxGeometry width="30" height="30" as="geometry" />
        </mxCell>
        <mxCell id="bIJiC8jtkmw2KY-kUC_S-188" value="leitung" style="shape=partialRectangle;top=0;left=0;right=0;bottom=0;html=1;align=left;verticalAlign=top;fillColor=none;spacingLeft=34;spacingRight=4;whiteSpace=wrap;overflow=hidden;rotatable=0;points=[[0,0.5],[1,0.5]];portConstraint=eastwest;dropTarget=0;" parent="bIJiC8jtkmw2KY-kUC_S-185" vertex="1">
          <mxGeometry y="56" width="160" height="26" as="geometry" />
        </mxCell>
        <mxCell id="bIJiC8jtkmw2KY-kUC_S-189" value="FK" style="shape=partialRectangle;top=0;left=0;bottom=0;html=1;fillColor=none;align=left;verticalAlign=top;spacingLeft=4;spacingRight=4;whiteSpace=wrap;overflow=hidden;rotatable=0;points=[];portConstraint=eastwest;part=1;" parent="bIJiC8jtkmw2KY-kUC_S-188" vertex="1" connectable="0">
          <mxGeometry width="30" height="26" as="geometry" />
        </mxCell>
        <mxCell id="bIJiC8jtkmw2KY-kUC_S-196" style="edgeStyle=orthogonalEdgeStyle;rounded=0;orthogonalLoop=1;jettySize=auto;html=1;exitX=1;exitY=0.5;exitDx=0;exitDy=0;endArrow=ERzeroToMany;endFill=0;startArrow=ERmandOne;startFill=0;entryX=0;entryY=0.5;entryDx=0;entryDy=0;" parent="bIJiC8jtkmw2KY-kUC_S-213" target="bIJiC8jtkmw2KY-kUC_S-199" edge="1">
          <mxGeometry relative="1" as="geometry">
            <mxPoint x="167" y="122" as="sourcePoint" />
            <mxPoint x="187" y="40" as="targetPoint" />
            <Array as="points">
              <mxPoint x="187" y="122" />
              <mxPoint x="187" y="69" />
            </Array>
          </mxGeometry>
        </mxCell>
        <mxCell id="bIJiC8jtkmw2KY-kUC_S-197" style="edgeStyle=orthogonalEdgeStyle;rounded=0;orthogonalLoop=1;jettySize=auto;html=1;endArrow=ERmandOne;endFill=0;startArrow=ERzeroToMany;startFill=0;exitX=0.999;exitY=0.283;exitDx=0;exitDy=0;exitPerimeter=0;entryX=-0.014;entryY=0.129;entryDx=0;entryDy=0;entryPerimeter=0;" parent="bIJiC8jtkmw2KY-kUC_S-213" source="bIJiC8jtkmw2KY-kUC_S-183" target="bIJiC8jtkmw2KY-kUC_S-168" edge="1">
          <mxGeometry relative="1" as="geometry">
            <Array as="points">
              <mxPoint x="425" y="89" />
              <mxPoint x="425" y="140" />
            </Array>
            <mxPoint x="477" y="40" as="sourcePoint" />
            <mxPoint x="438" y="140" as="targetPoint" />
          </mxGeometry>
        </mxCell>
        <mxCell id="bIJiC8jtkmw2KY-kUC_S-198" style="edgeStyle=orthogonalEdgeStyle;rounded=0;orthogonalLoop=1;jettySize=auto;html=1;startArrow=ERzeroToOne;startFill=0;endArrow=ERmandOne;endFill=0;entryX=-0.004;entryY=0.625;entryDx=0;entryDy=0;entryPerimeter=0;exitX=1.011;exitY=0.721;exitDx=0;exitDy=0;exitPerimeter=0;" parent="bIJiC8jtkmw2KY-kUC_S-213" source="bIJiC8jtkmw2KY-kUC_S-188" target="bIJiC8jtkmw2KY-kUC_S-168" edge="1">
          <mxGeometry relative="1" as="geometry">
            <mxPoint x="177" y="154" as="sourcePoint" />
            <mxPoint x="427" y="156" as="targetPoint" />
          </mxGeometry>
        </mxCell>
        <mxCell id="bIJiC8jtkmw2KY-kUC_S-211" value="" style="shape=image;verticalLabelPosition=bottom;labelBackgroundColor=default;verticalAlign=top;aspect=fixed;imageAspect=0;image=data:image/png,iVBORw0KGgoAAAANSUhEUgAAA+oAAAHoCAYAAADeyRXwAAAgAElEQVR4Xuy9S24lP3vmSe2h7VpBHkBdqCUcDWqYGiSQBdQGBBzB8EQCNDhDDzUQIA26YUgNbaCASiCBPhoaKOW3A8MWrLMCu3oNn5qM+4WXhxGMOAzGc+zB908xGOTvffkGH17PvuRP8EcCJEACJEACJEACJEACJEACJEACJBAFgTMK9SjswEKQAAmQAAmQAAmQAAmQAAmQAAmQQEaAQp2OQAIkQAIkQAIkQAIkQAIkQAIkQAIREaBQj8gYLAoJkAAJkAAJkAAJkAAJkAAJkAAJUKjTB0iABEiABEiABEiABEiABEiABEggIgIU6hEZg0UhARIgARIgARIgARIgARIgARIgAQp1+gAJkAAJkAAJkAAJkAAJkAAJkAAJRESAQj0iY7AoJEACJEACJEACJEACJEACJEACJGAV6mdnZyREAosmIK8fXHT5WfjhBBi/hrPjkyRAAssnwO/f8m04tAb8/g0lx+dIYF4CrjjtFOquDOatDt9GAjgB9aGi/+K8UktJ+6dmUdaHBEgAJcD4h5JKMx3tn6ZdWau0CCDtlEI9LZuzNg0CSAMgsHQJ0P7p2pY1IwESsBNg/Fu3h9D+67Y/a78MAkg7pVBfhi1ZygEEkAYwIFs+shACtP9CDMVikgAJBCfA+Bcc6aIypP0XZS4WdqUEkHZKob5S51hDtZEGsAYOa60j7b9Wy7PeJEACjH/r9gHaf932Z+2XQQBppxTqy7AlSzmAANIABmTLRxZCgPZfiKFYTBIggeAEGP+CI11UhrT/oszFwq6UANJOKdRX6hxrqDbSANbAYa11pP3XannWmwRIgPFv3T5A+6/b/qz9Mggg7ZRCfRm2ZCkHEEAawIBs+chCCND+CzEUi0kCJBCcAONfcKSLypD2X5S5WNiVEkDaKYX6Sp1jDdVGGsAaOKy1jrT/Wi3PepMACTD+rdsHaP9125+1XwYBpJ1SqHdseXy6EJvbP/Jft+Lx813cfLMY++1anF2+ZAl2h0/x/N2WeBlOk1IpkQaQUn1ZlzYB2p8esUYCb9dnIv8sAd+wNQJaSZ0Z/1ZiaEM1af8B9g/Upw8dg710yYBq2x85irfrK/lNUbqo+K4cpDb6HvxFq8wQaacU6oGE+vbxU7xbVf0qffCklUYawEkLyJdPSoD2nxQvM5+IwFF2FjfVAPCXHAD2e1HoTqLf25k6FgKMf7FY4jTloP0HcG8I9TF9+tAx+JRCva5LzXN38P8uDbDGKh5B2imFOoV6so0BaQDJVp4VE7Q/nQAicHwT15tLoSahz3YH8VdfZQy9BE/U7BgNKY93JzGy+uOkmNJGgPFv3f5B+w+wP4V6B5r8Np7l30a5blgcvp7Fd3GU/1uuHuZ3Y4CD9R9B2imFOoV6EGeLMROkAcRYbpYpDAHaPwzH5HM5PomLza1QC/uGCOPQfI5Pckb9VnWNtnJL1fv0M+qR1T80z7Xmx/i3Vsvn9ab9B9ifQr0NzfZt4HdjgINRqAeB5rXEJFCjDlJwZtIjwA/Vup2C9l+3/eHaJ9bh8J9Rj2ugArYbE1oJMP6t20Fo/wH2D9Sn947BjqJ66ZIB1TY+QqEekqY2L6Sdcka9g07fII7i6XojskkO+av2Z1ga9fHtSTzc/xIvf8oDGOT8yHYnfr4+dw6okwc1PD2Ie5l5dVSDTLeX6eqz6ZA0ednU/sare5lX9dqt2O724lUu51zbUXdIA5i8FfIFJyNA+58MfdAXGzs9hk5ElX77KD7fL8VBHoRzWx6EI2PrYyMG6/bflYXv7sNDY2vr/a8b8XAllw7KeKxm6/9NxuFjedibKp/m79+sBxoV34JfjRiv6rS/k4f75BG+zetVbB4aBwGNqH9QozKzyQkw/k2OOOoX0P4DzOMQ6t7fgOxAT3sMbsVswzdBaA+51usS1/dHfSXc+kTmfSE1Ty1fapiyjI/nt5Ue6lLm/nU/v0PaKYU6INRr8S4TZ52/m1z0Ghq1rfPXPYnXlLa5BBNJ0+6g6Ryl3F/i50RLTo00gCXXj2W3E6D90/CQwUJddpK2cviz39eoT0NHhbo9prdja91Rku+XI6b1mGn+7aiFuv7vTaHePtDI0nmq9g82hbrJ/v71T8OT1lULxr912btbW9p/gP0tQn3QN8BYhPaNHK5vhk6om3SJK6/q+6MtW1kuCvUB3jPoEaSdUqi7hLqolwW2RLpDqN9/qFnxOzkrns9yNE/yrUV4fVBDOdvyTR7UcHx7kLPi5+I1GxBA0sj8qxE3NZZwEK/y7oR85EzOsMsThGPZfznIkwc+hDSAgVnzsQUQoP0XYCSgiMOFusq87ni8yVVRxWHqMkY2bulwLH33ja3dDl15dWdxBE9jxjuvfPfvpgHgZjnq70UZ44XYZwf9dIX6+PoDJmKSCAkw/kVolBmLRPsPgG0Q6uO+Ae4Y7Ppm9Fb6WnSJKy/1d0yfKAFh2RaV2JaxAd4S5BGknVKoW4X6XnwUpwHXJx42HvDaz9IW3NnJwh1HV8sie8vTkTRS3FfLVJoz/kVR64a7rll1pAEEaWnMJEoCtH+UZvEu1HCh3rlH3NSxsHY4/GOr69R219/1Qr05w2GP4768rJ0xb2vxgVgIMP7FYonTlIP2H8Bd26cf8w3AvkGub0JbqNt1iSsvPRWNPlEJKdQHOJHfI0g7pVC3CPXtVi5bzNYtGk7f9dyjXr6qnlHvLi8p9pPfScFeKXYkTfMKBZuTUKj7NSGmXjIBJAAuuX5rKbuv8DQf5DOgM9JY0WTnXcdW10FCrr/rhXojxmsGY5tlC1v/tXhZevVk/EvPpj41ov19aBVptX16//61bwx2fROaQt2lS1x5Zfpbc4ZWX59QqA/wIO9HkHZKoW4R6rudEC/FIUTaa3uMe9Qv5BJL3SkM+ctaeam7CIvDhuqiyIGBx1fxfFOodVeaxqgX2pn09qYFPoA0gAVWi0UGCdD+IKjIk51UqA+Ira6OkuvvWqHeLAeFeuQeG0fxGP/isMOpSkH7DyCv69MH/QboB4td34SmUHfpEldeb9c++oRL3wd4kdcjSDulULcI9cfP5hKTxmnv5TPORi1nWT7L09sNszlFXkcpxh+u7hunxHeWzKjBLWMafLbFy4MWnhhpAAuvIotvIUD7p+EeJxXqzRl1h0CuPwtnxV74fgxXaVwdKc6op+G3p64F49+pLXDa99P+A/i7ZtRHfwPGC3WXLrF+X1qDDoA+4dL3AU7k9wjSTinUrUL9Xdwcr8VZeQJR42Td7DGHUG+f2GsX6mUxmodWmK456KfB9y/6udCyUyMNYNk1ZOltBGj/NPzD2PFoxF/9LRldoTxk6bt/bHUJcdffJ9uj3jmYNDsnRf14KFAaDaVTC8a/JM0KV4r2h1HVCV171LsawPCKKZe+P37adQkq1CF9QqE+wIn8HkHaKYW6S6jL1efNwxlazu2aUa9G39r7zKtOpWoEVx/iZ3UHrrwjtzqZuOhkqtMdXWlkGbtXNRxeb6p72MuZ+I+fr+K9XE7v50uLTI00gEVWjIWGCND+EKboE+lOOxdyj93V5W119dkood7ah94/x8M3trqEuOvv/qe+P4mH+w/x47176js4UOGof/QOwgJqCTD+rdsxaP8B9gdOfVe3P7n615MLdYsuQYV6fYuVQZ84B3Gbe/fXdf7VAM8yPoK0Uwp1QKhLqS6uzy7FS5a20flxjr7pbdMS6pu6s9lKXYp82/6Y1jIc2x27ec7tEbSQrhZnXkgDiLPkLFUIArR/CIoR5GGMgfU96eOEuv7u8XpFk19sdQlx199NQr39HeraBTnMzryqqzkYXeZsWtEVgUewCAABxj8AUsJJaP8BxjUeEB3qGxBi6bucUc+Or9LrEvv3xV2P9hlalj3qqgTyqrdqwXGBm98NP79D2imFOiTU2zPWlSM3GnV5F26enWwM11fitjpQLj8c7sdHfo9vsyFk95zfy3vOq7PnVNq9uCvuQc9yA9KU7317ehD3v5r5SYG+3TVm7f2caMmpkQaw5Pqx7HYCtH9CHiLF+vXVrTzDI6/TdvcoXp8vxeFiI27lv40V6rqYnS0xbNy+gcZWlxB3/b0p1Nvflfzb8ia/LfcSRPnJ6MZ339kc0zerXf+EfGklVWH8W4mhDdWk/QfY39inL2Iv2L/2jcGub0LvHvXynOmnC7FRH0D5K7+Brrx89Il7W1Rf6/C74ed3SDulUPdjytQLIoA0gAVVh0X1JED7ewJjchIggWQIMP4lY8pBFaH9B2HjQyQwKwGknVKoz2oSvmxOAkgDmLM8fNe8BGj/eXnzbSRAAvEQYPyLxxanKAntfwrqfCcJ+BFA2imFuh9Tpl4QAaQBLKg6LKonAdrfExiTkwAJJEOA8S8ZUw6qCO0/CBsfIoFZCSDtlEJ9VpPwZXMSQBrAnOXhu+YlQPvPy5tvIwESiIcA4188tjhFSWj/U1DnO0nAjwDSTinU/Zgy9YIIIA1gQdVhUT0J0P6ewJicBEggGQKMf8mYclBFaP9B2PgQCcxKAGmnFOqzmoQvm5MA0gDmLA/fNS8B2n9e3nwbCZBAPAQY/+KxxSlKQvufgjrfSQJ+BJB2SqHux5SpF0QAaQALqg6L6kmA9vcExuQkQALJEGD8S8aUgypC+w/CxodIYFYCSDt1CvVZS8yXkUBgAl9fX4FzZHZLIaACIH8kQAIksFYC/P6t1fLyXm1+/9ZrfNZ8UQRccdop1F0ZLIrGQgqLjLAspConLSY5nhT/yV9O+2MmICdywgjEkYr+itmBnDBOqaai/cNblkzDM117johPUahH6CWI4SIsdnRFIsfoTDJrgWh/DDc5kRNGII5U9FfMDuSEcUo1Fe0f3rJkGp7p2nNEfIpCPUIvQQwXYbGjKxI5RmeSWQtE+2O4yYmcMAJxpKK/YnYgJ4xTqqlo//CWJdPwTNeeI+JTFOoRegliuAiLHV2RyDE6k8xaINofw01O5IQRiCMV/RWzAzlhnFJNRfuHtyyZhme69hwRn6JQj9BLEMNFWOzoikSO0Zlk1gLR/hhuciInjEAcqeivmB3ICeOUairaP7xlyTQ807XniPgUhXqEXoIYLsJiR1ckcozOJLMWiPbHcJMTOWEE4khFf8XsQE4Yp1RT0f7hLUum4ZmuPUfEpyjUI/QSxHARFju6IpFjdCaZtUC0P4abnMgJIxBHKvorZgdywjilmor2D29ZMg3PdO05Ij5FoR6hlyCGi7DY0RWJHKMzyawFov0x3OREThiBOFLRXzE7kBPGKdVUtH94y5JpeKZrzxHxKW+hfny6EJvbP5LtVjx+voubbyvD/HYtzi5fskrvDp/i+Xt4AFrDzfDe1CyJNIDU6sz61ASC2P/4Jq43l0K1+LPdQfz1+XtyiHWcvOL8SmLTlHH57fpM5J+VMN9VL/sF9+ijeLu+kvVR/YSiTgfZVwjUdMztetr3NjGFtldwE6h4dXYmvr6+psiaeS6AwOi4voA6ehdx5LeKbcqbOB9wEEB8ikLd140aDX37+CneJxipcHUIx7z3KMu/qQYavuRAgy+A5aRHGsByasOS+hLQdlR8/f/4JC42t0JJDgp1gwVmiIm+tp8i/ZRxObTwO6VQr+tSW2F3CPetMcX1qd9LoT5Fq2KeUxGgUNeQHfmtYp9yKm9db76IT1Go+/rHyIaOvG6eDmFHeCQ4c4g0AMQeTLNMAjr7NzvzkPCmUHevnJohJsbggfPE5aXPqMsVKGf5ChS55kwcvp7Fd3GU/1uuPAv0jdHHdct7J3Ce0AMrExSRM+pTQF1QnhTqFOoLctfVFhXRKRTqvu4xQ6d0yg7h8UnOqN+qbtRWLt1/r2fUExQkSAPwNT/TL4eAvqNi8H9TtRJsF92qju7QzRATY/C6KeNyaOF3shl1W3sJ1Ja0dgiUN+pnoe2FvtcnHb9/PrTSSzs6rqeHRMg9OdXW1SErU9mmUnSK09YJ8SkKdV8bjWzoyOum7BAa3z9zRwfhMDYN0gDGvoPPx0sgiP0TbBcU6sN8dsq4HFr4UahPu6crtL2GeaT9qSDxb4qCMc9ZCFCoazCP7L+zTc3iuqt6CeJTgYT6UTxdb0Q2USt/5X4048fM0flV+6iv7l/En/IsGjn7u93txavcUN08uq3Kf/soPl834uFKLrmTz6glrf/2LMRDtQSva/f+8kL0nWNH5BAPHNIhHFL+8jA83d6+spxDbdmyzfulOMjDhW7Lw4W2O/H4+tw7iPD49iQe7m8zG+p+vvsckQaA2INplknA1Y56h0GqpblX99L/cgfc7h7F650QV9yjXrRVfZy3xcS8Tf+qmGZcZfv/2Wv/8iCwpwdxLz8i1RFkMt1epqvP60TS5L4Kx0MP13b5k26GBi1H+1v5KjYPjcPYNPHS/u2TIlV76KvjO639jubfXLcdZd4Xsg+gi90y38fz26p/0EU+Lq7b3/v5fgOWv1mqws9+Nfogygb7O3kgXt4D8bWXh5sFS8rvXzCUi8wIF+rsv6MGtm6nU/HTq6/r/i5WA65F3kfZj76XHeSihyJ2j6/iWZ2T1em7yM6LOLS+nXUN0W8SyoTpxhFA4nQQoV6P3qtemHLW/OM4RKjbRGO95y0HU3dWpJCXneta16sySOEOCnWfd8Yo1MeWf1KhrgZZpGX6/bfOYEljpNPk9uM6dOMaE59eHgE/YdXc46qvK7SnfXmYtHtZdTOypjhvion2uNRu/6a0TeZImraI0hmj3Dftbyg/f2p+/9zlsLNSzxt4bXXfvhutUHd+pw15HasT6XX1KMsVr1DHyl/WzVKPas+9y7Z9e/l72/gnkA7g+Lcwh1gJoELdGRe6N1FYJtp8+qJL7L9bhTrY1/X5LtZCvehHawZCt7udEC/1AHftj/1vnY99YvXr1MqFxOnxQl3UpyI3RXq7w9QRZYaG3gwY28eDeJX3ueSj+XKGXZ5U3j15uet05QxZcXRN254NIdjs/Pm+MzahHqz8jlUOvoMubdvUnbk3ufKiOHReukt5an6jc1QN9KhZDTmrNOIqQKQBpNboWZ+agI+wavpr6ZdqFvHqMj/xXf1WLdQtcd4m1O8/1Kz4nZwVz2cim7dO1DzrQZJ8NZSK+0eZ9kGurDoXr9nAL5JG5l/NJKsxY/c3xKe9+PiTbzn84mVfKHa/fb2BFug7ndPo5qXKhtlRGdhyS0KgbSS+e9R9yt+0W+2LZR9EiH12OF6Xv+v75uNl4dLy+xeO5RJzgoQ6FBfYfy/tbxfqKpU7FgyNR/m5UnIGXa7qaX5Hs7JVM+jqikpdH3vab+MS20csZUbi9EihvhcfxR3D3dluBcFP3OnEWo2yzqseJWp2buyd6OYoeTPo+L8zLqEesPyTCXUkyNed8Nby0UaZfGfTM2HFe2RjiUUnKQcurHQnRhdFNgzwnaRCE73U3aGzx3m/mNgW3Nm99J3Ykwv1zg9JI8V9tfy6sbKrzEn3DfFBivuTfzn8vpVtoaj79rWFOvqd9hmM0thRwYxQqOttrCt/s59gX3nhay8fPwuVlt+/UCSXmc/YuO7n42NinivuxNN/d82oP36+11s6vQYm9fG0OXDY7gP79ln87bNMr19eqZE4PUqob7dySXM23dQ5Qbzq454Vs6d+Ys2OWifU7VfatGc3mnefu5e75mVpfLRHHkaBuBHeIQxY/rmEemdmLOuoN/6tXpXBGXXEV5jGTABuRzOIi5jt5OrQueK87x71kkUtMLvLjYszSe6kYK8UO5JmQDz0MAzsT814Zs0f+ZbpO3DGTnTxvqZQd9nPlVemvzVnDfTtGK9Qx8rf8B/NQE/TlGZmhgEMDz8LlRTpAIZ6F/OJj8DYuO4n1P1jLxJ3stjTWiV12v67l1DX9nVzP8HiUbvubaFuGVTU9mf87ROfR6dZIiROjxLq+daIfGGoblTfq6E3nMtuDqRz0/qkau51rXoz4qI4KAp9p9/s0TDHgjuEA5gZy39SoS45WfaoD11yjDSAYRbiU0sgMKQd9XzNa1R8CVT6ZXR16Fxx3rz0/UIO1BpOhux+M7LDcPLDQOufHAAuD8vJezf2NEPioYfJhvgT+l3xFX6uTm5TqLvs58rr7drHjjEufQfL3/QfCnWPlsGkMRIYG9fZf8e+lf6xG4xH6pPXGKQYJdQn/jbG6P9LKROiU0YJ9cfP5pK6+rT3EpBXQ9fOqtpRuzoY6unm8vj+8ml8BL0qSawz6o6OhbP8JxXqzWU5W1Ef96866ntxV5xV4NvwkAbgmyfTL4fAEGFFoZ7b17x0uh/ntUK91TGQg6uf5ent9hnHoxTjD42T97uHqGVlM6YZEM893Bn2p6DfsvEz6oO/07kjNAazATvOsDrFa4+6V/lx//HtnHu4WbCk/P4FQ7nIjFxCfXBccM3Ygn3RJfbfR8+oe8WjgEJ9wDdpkU6/wEIjcXqkUJf7MY7X4qw8Hay5RLwlks0nfOuXP2In8zobunOEHN+T5hS6AR0E7xAGLP9QoW7Yw+vVkanerd9CMRQt0gCG5s3n4ieAtyPf/V7x192nhO4OnT3Ou4R6+9oybGmweSahrlk/zYB46AEK9yf/cnjFS9u3tahP7zC5Id/pjlCH7BixUHeXH7ebr7083CxYUn7/gqFcZEZj47rRx7V9PrztlDCX2H8PKdTd8SikUPe3zyKdfoGFRuL0eKEu9xA2Z62bzqc7QVUe5W08Sbl7TcTh9aa6Q7ecRfn4+Sre1b2Bzs6K6QCKtiV93xnV0vdswuNCbMrLa+VIpouZufwWsdJ5T3kars2WXh0Zy7KcrbwySJzvxavugClHo0QawALbNYsMEsCFlT6GNW+bUK8cugUDLO7JkkEdOkucdwn15rkTzbu2K56q/V99iJ/VPdXNk2uLQV51OrErjbpO1jceelD38SffcnjFS+e3r7siIj/gyPSdtnaYtYPd7fMCWu3COuBr/8agphg8o964UUTrh4bvXH2P/If48d499b17Pg42EIXWdUw6fv/G0Fv+s2PjOvvvfR8IKdSd38VOPBq19H2IVlh+E1hEDZA4HUSotw4Da965aBRg9d3a7c6v7Q7TnHlzIADuYGjMVTu93ztjE+qyS1afdGxwy9bInWXpfrMjV2ZVcfK05fCOp7ES4jO7pgn/IQ0Az40pl0bAR1i1l/g2aypjVXFo5tqFujHOa2OKOy61hLrprJBSXNn22LWWWrrf257JwL3ay5884/LweKk/SLU3o54FzqZQrp+zz2y5eeJCXX//uO+NHl5CHbBDu13bDl1CzsehUMdbFFNOSQAV6uy/41YYLdQ941GwPepZFd2xfOi3ESfIlF0CiE4JJNTbMxndD/f11W11SNB29yhnRy/F4WIj1ERwv/OrTvt+EPe/5L3pjYOFtvKewHrGJa9qGKGeOzD6zqZQL++bDe16rg5h/72hyi8b8vWVuK1OdOqf1o/a0q/jabierRVY7Cf762yANIDQtmN+8RDwbkdSDPb9+0Yc5T3SancPhbohzjeEejs29eOJOhzux0d+z2uTZ7Z64b4Z8/vnUyBpcu/ziIce7urtTx7l8IuXjm+fIlCtLGjHze4smbp1w7kEVcXhznfBZEfr9WxlZ9H2jQHs4SfUiw4qWv7Sf2T6e/kdLLsg3f6Hr72AagVPwu9fcKSLyhAX6uy/o4YdL9T94lFYoT7dtxHlx3R9Akic9hbqBD09AcRw05divjfUwah/NgGyV9VU0rVxnM9iy3gT7Y/ZiZzICSMQRyr6K2YHcsI4pZqK9g9vWTINz3TtOSI+RaEeoZcghouw2IOL1DqZ//FTPBdnEGTXMW3klU1ZztgBg81CrI3jYAMk+iDtjxmWnMgJIxBHKvorZgdywjilmor2D29ZMg3PdO05Ij5FoR6hlyCGi7DYw4tkuUO9zHTI3pnVcRxugSSfpP0xs5ITOWEE4khFf8XsQE4Yp1RT0f7hLUum4ZmuPUfEpyjUI/QSxHARFntUkapT/eXBBPXRBPIgr91Psb+rT//3eckaOfrwST0t7Y9ZmJzICSMQRyr6K2YHcsI4pZqK9g9vWTINz3TtOSI+RaEeoZcghouw2NEViRyjM8msBaL9MdzkRE4YgThS0V8xO5ATxinVVLR/eMuSaXima88R8SkK9Qi9BDFchMWOrkjkGJ1JZi0Q7Y/hJidywgjEkYr+itmBnDBOqaai/cNblkzDM117johPUahH6CWI4SIsdnRFIsfoTDJrgWh/DDc5kRNGII5U9FfMDuSEcUo1Fe0f3rJkGp7p2nNEfMop1NcOkfVfNoGvr69lV4ClH0xABUD+SIAESGCtBPj9W6vlheD3b722Z82XRcAVp51C3ZXBsnAso7TICMsyanLaUpLjafmf+u20P2YBciInjEAcqeivmB3ICeOUairaP7xlyTQ807XniPgUhXqEXoIYLsJiR1ckcozOJLMWiPbHcJMTOWEE4khFf8XsQE4Yp1RT0f7hLUum4ZmuPUfEpyjUI/QSxHARFju6IpFjdCaZtUC0P4abnMgJIxBHKvorZgdywjilmor2D29ZMg3PdO05Ij5FoR6hlyCGi7DY0RWJHKMzyawFov0x3OREThiBOFLRXzE7kBPGKdVUtH94y5JpeKZrzxHxKQr1CL0EMVyExY6uSOQYnUlmLRDtj+EmJ3LCCMSRiv6K2YGcME6ppqL9w1uWTMMzXXuOiE9RqEfoJYjhIix2dEUix+hMMmuBaH8MNzmRE0YgjlT0V8wO5IRxSjUV7R/esmQanunac0R8ikI9Qi9BDBdhsaMrEjlGZ5JZC0T7Y7jJiZwwAnGkor9idiAnjFOqqWj/8JYl0/BM154j4lMU6hF6CWK4CIsdXZHIMTqTzFog2h/DTU7khBGIIxX9FbMDOWGcUk1F+4e3LJmGZ7r2HBGfolCP0EsQw0VY7OiKRI7RmWTWAtH+GG5yIieMQByp6K+YHcgJ45RqKto/vDSg1TQAACAASURBVGWDMT0ehfj2LXwBdTm+XYuzyxexffwU7zeNd3bLYEo3TylX+xbEpwYI9TdxfXYpXgxY285QpN0+is/3G9F1y6N0jKv7F/HnT5HZdit2+1fx/F3vwF7pj2/i6eFe/Hr5I6rsd49if3cjDNlH4yh6w1lYHp/ExeZW1nMnDp/PRf3s7FVlj08XYnMrnzp8SebRVD9YQZAGEOxlzCg6Am77H8XTxUbIJpBsG0CMYo03jPMVgTan2nfcjGVc/pJxWTAmu1m5Uxjbde+bvxXb3V68yo/buC6xqc8j89+ei5/7O3ETYafCHf/crJliuQRc9j/K9vJwdS9eqg64kP68Fec/9+Lupmwzvv3O5fJCSh6CadnvlspZq4uQcnil0QhwbRko1L2whkrs8in1nhFCXYrq3XmvrOc/nuVHq/xncyN/u74Ql1JEy9BQ5PMhXrL/lv/SHfmR/+aVvnC4LK/dTqhSfrzIAYEs97LTFApz+Hz8hHrdYfQZJFGlplAPbzvmGA8BWwA8vj2Jq0s1uJX/Uh2sQqxhF+qM8yXDLqe3p2vx+6NB+EN+w1Snd7sT7U/jD3GXiUUKdcQfXWm0/loNVmcf/Zz/x4u0R9ahGNkhLoV6uy18yPzrSYax73DV2v/vSAfQP1c+sRQCNvvX/WklzmUfOevKf8gmk09s1X1JU8wy9TuXQmdYOUMwVROOGznDfbY7iL/OMUOmE+q6MlCoD3OKkU8hcXq4UIc+foZGXgrpbh7Vx3YrHj/fRbVKwzO9EqBXH92R9HpUXDcQMJJ10Md9hPrb9Zkc8JAjLr1Gz04h0gCCGo6ZRUXAZP+qkyI7KI/nH+JWdk4o1L86tnPHj/qBdcR5ZzxxdnTcTFMfPA0RIHR2KL+D/eWdcrXZlRCvmhV9eFlss4py5d7VZbYqZ/yAAF4iJKXTX5FMmGaxBEz2r2dT5aTVa7kCs66mmmk/HL8Vq0T0vm/udy4WF1TwMEyhV4VL5PwuFa9C04UrGXOSBJA4fRKhXjZyXedY98H1TW+yfhmgZhvJGuiGqFC3L6FhpxBpAANNxMcWQMDWjj7kwJZaEivXvie9/QMxExpvzHnZO3OpxHlnPHF2dBiTEX90penboZzd6wzwuzKC/+6yWz0JENOAn9Nf4foz4RIJuFZKtSbDjBXs+/7sS7cjgh+G6cwVcn6XKNRntkjrdUicPoFQLz9qhiXohVPVYto3vRl5UkK9uS892//Y/bk6F1z6fsrGyXdPT8A4+i0PUflWHOTCGUzTiK47ftQW1KX1jdu+6eeP884PqrND5GZKf3THBbNQB7ewWOyk5++2m9yblx3YFNMkgNNf3aiZYsEEdPb37wN3fN/Z71wwMKDoQZja4k/v3C656q97BkbxfDYo+E3ap3HOgNrGsO+uktC9D/03yaRcgRj7SmTAfFEmQeL06YS6ael8GQiqvzs+kr30lnmfYpl47A7nnuHaiIfsQD/bDIK7c5F6pxBpAFG2XBYqCAHE/qm3AQSkO970DwJt52sR6gnFeac/Uagj7jY6ja2zrM68eTy82g93m0KoRyhgnP462hLMIGYCti0i+MqPZmxH+p0xExlftiBMDfGnWk0sxfbP/Q+x+fwt7n/l52C07FUKdXn+Vnb2ljqEWx0yUJ7J0T2HCxXlmnSlSFcDkP82+lDO8fxTzAGJ08OFenUIXBPdufjROlVd04FzCevu333TGy1ZHwiDLfk5nUvYO87yoBwp0dUhOfZgW9dXd+hfVruiYeNB+3RMhrwZaQBD8uUzyyCA2J9C3TGjzjhfObvTn1ChrmVavCbxmBwicujtcJQzP5vsvJbsp86fMJ3GPoVQLw8KtA6eh6g9nofTX/GsmHKBBMJsESn78Gi/c4GgPIochKlFOBvPmmqK7+Zh2Z2Dt7VndQwU6mve4uDhEqOTInF6hFDXl68t+uIR6v5LfkbzH5yBXajLK2HkEJs6uwYT6u5iUKi7GTHF8gggAZBC3SXUGedLAk5/goW6uy2lGpPdNXensNkhu8JVqvXyNgcl2HsHZlGouyEzxeIJBBGV1U0VaL9z8disFQjCVDtzrQ6F1q+QzcV342+2bTa6ic0hQn3zkG3lie2AzBS9y9mvkJUeLtSHnvruO0Pum15nyQiXpdkczrkU9VWIq/LedO3+dJU7l74jDSDFhs865QQQ+1OoT7RH3Tdu+6Y/QZx3+hMq1C3fTvqjO3o57SCzyAT7fXl9Wuc8nEmFejzXvyKc3LSZYqkEgojKZj8S6nculRZW7iBMe/GncRjmYS82naJ8/r5v30xj/c5oznrxFepyKb1ab/8H0ngYN6YyE0DidLRC/S/ldWNgB65K3+Uhr5q43rj2c8flRk6hLq+aKU+rNo94UagjDSAuy7M0IQkg9qcwOq1QX1Kcd/oThXrI5mvMy2mH6knDXc9TCPUIJwNwTrOYjS+ZmYBZVLpWYzYL2u5HuvudM1dy5tcFYdqLP/WtEbbqVKusphbqj4/i/PZWbrD18ZOZDZHQ65A4Pb9Qr/ZyzXHqe5zXprh8DBHq34ShE1JlTqGONACXLfj35RJA7E+hPpFQTzDOO/2JQn2WYOG0Q0tnaE5jn0Ko25ajzkKl/xIvTicqI187HQGd/f23gHb7ka5+53T1iSHnIEyNM+rgapzJhfqneC+XvncPpovBCImVAYnTJxDqdUO33a9b/803fWnF5nOf4vn7t8WYFxPqqjq2gQgKdaQBLMYpWFBvAoj9KdSnEuq+cds3/fxx3ulPFOrebXTIA047gEJdd5XasOvZ7L47pI4hnvHiFOKFzCMqAlr7e6/8sF29ub4Z1yBMPfeo95zK9p0JtUf9Rk4FPl2Iza087YNL4Cdt10icPoFQr+/v7jmAIYgYHcYYdJY96ocLdaXV8xkDGTLFobVfnUIdaQCTtkBmflICiP0p1KcS6unFeac/UajP0t57dlD9gKuP/v3BjVVnrUkBUz9D2m9THBvvPBS3Gid6E09Xl0L1Z2O6Q10Vz+mvs1iLLzkVAZP9y5PBVf/78HojenNYcrvo0/FbccWhoR9p7HeeqrbzvDcIU8uecb0oljdaPB3Ft5vvIptuNJ76Xt980bqC2nePenWS/LJ11DweMf4tSJw+iVCXXTi51WWTfdzUvaf59WEf4kXdOab++/AuZ8CbAPzS14GouF9Qw/LH3XM/QI1nHiQHL6GetVt1KqRC9yg+5f71fO0AhTrSAIIYjJlESUBvf/XRexC/P4oiF9dhbeXp0OoqUvWLOTZMAdo33vTLYIo1fnHb97swd5x3xhMK9Sncs5enVqhnh6uqb2D5zf+Qt4/mt6PoBHTlO2X/o4oDW3mO0p/OjSr6q04/5DPqjuPstbtH8fpcfntnweB8idNfnTkwwZIJmO3fjMuqyZTfPl2bMfcj9f3OJRNzlz0IU+13ov2t3EpNlHVHyrvRm3378nkZ61SsKmNeFY+6M+CDhXpDR8j/yZtI3P4xJAUSp08k1FV11OjPlbgvPqb5N3anGRUvq46nrz/CZmwxO51/x1m39I5CHWkAQxoWn1kGAWs7slQh5tgwBXn/eNMthS3W4HE7zxVPP3ecd8YTCvUp3LOXp375qfSbh3Z/IuvA7l8N295yP7vMJgdU56O4d13k1xJpZ9R7JZFXVu1+iv3dpRz0j29rndNfZ7EWX3IqAnb7H+XNCA+NmxGKZiDbwc/9nbiU0+zuCZ84t3xMyTsIU+N3Ip9EuP9VDwCqicvtbi9e7+Rsehlims9fHsT1lTz4rQpjBzlgWMy8lyBGCXWZiXz+IrvyEtxDP6UBEswbidMDhHqCpCKrEmK4yIocZXHIMUqzzFYo2h9DTU7khBGIIxX9FbMDOWGcUk1F+4e3bBRMnQPC4evNHKcjgPgUhfp0/AfnjBhucOYrepAcV2RsTVVpf8z+5EROGIE4UtFfMTuQE8Yp1VS0f3jLRsGUQj28YU+YI+JTFOonNJDp1YjhIix2dEUix+hMMmuBaH8MNzmRE0YgjlT0V8wO5IRxSjUV7R/eslEwpVAPb9gT5oj4FIX6CQ1EoT4tfKQBTFsC5n5KArQ/Rp+cyAkjEEcq+itmB3LCOKWaivYPb9komFKohzfsCXNEfIpC/YQGolCfFj7SAKYtAXM/JQHaH6NPTuSEEYgjFf0VswM5YZxSTUX7h7csmYZnuvYcEZ+iUI/QSxDDRVjs6IpEjtGZZNYC0f4YbnIiJ4xAHKnor5gdyAnjlGoq2j+8Zck0PNO154j4FIV6hF6CGC7CYkdXJHKMziSzFoj2x3CTEzlhBOJIRX/F7EBOGKdUU9H+4S1LpuGZrj1HxKecQn3tEFn/ZRP4+vpadgVY+sEEVADkjwRIgATWSoDfv7VaXgh+/9Zre9Z8WQRccdop1F0ZLAvHMkqLjLAsoyanLSU5npb/qd9O+2MWICdywgjEkYr+itmBnDBOqaai/cNblkzDM117johPUahH6CWI4SIsdnRFIsfoTDJrgWh/DDc5kRNGII5U9FfMDuSEcUo1Fe0f3rJkGp7p2nNEfIpCPUIvQQwXYbGjKxI5RmeSWQtE+2O4yYmcMAJxpKK/YnYgJ4xTqqlo//CWJdPwTNeeI+JTFOoRegliuAiLHV2RyDE6k8xaINofw01O5IQRiCMV/RWzAzlhnFJNRfuHtyyZhme69hwRn6JQj9BLEMNFWOzoikSO0Zlk1gLR/hhuciInjEAcqeivmB3ICeOUairaP7xlyTQ807XniPgUhXqEXoIYLsJiR1ckcozOJLMWiPbHcJMTOWEE4khFf8XsQE4Yp1RT0f7hLUum4ZmuPUfEpyjUI/QSxHARFju6IpFjdCaZtUC0P4abnMgJIxBHKvorZgdywjilmor2D29ZMg3PdO05Ij5FoR6hlyCGi7DY0RWJHKMzyawFov0x3OREThiBOFLRXzE7kBPGKdVUtH94y5JpeKZrzxHxKQr1CL0EMVyExY6uSOQYnUlmLRDtj+EmJ3LCCMSRiv6K2YGcME6ppqL9w1v2pEzfrsXZ5YvYPn6K95tv4SvHHE9CAPGpAUL9TVyfXYoXQ5XaTlSk3T6Kz/cb0XWto3S8q/sX8edPkdl2K3b7V/H8Xe+EWPqjeLrYiNsyT6icJ7GP8aVtw2H1yTPbicPXs/gu7NxVyuPThdhISLvDl+QdV/1DlQZpAKHexXziI2C0//FNPD3ci18vf0QVenaPYn93IwyhJ77KBSyRnlPscb4AMKMte5yKjpPsOWm/bzLKVt8iY5w9PomLza34y+4g/nr3mf1v+6erjPEBHWBhWbnj+lG8PT2I+1+NvoWs41b2L85/7sXd5XfxrdXFMH0vTW1gK/M6Fz/3d+Im4oDh5rQww7O4XgT84jrg071YK5/Z7cWr7ECuRTYGZ+pjUQp1H1qLSYvE6RFCXYrq3XkPxvmPZ/nxKv/ZLBjfri/Epewoy89nkc+HeMn+W/6LZsTIJ/3b07X4/WGw08eLUK+JeVSqa7hefT4kKzW6sd2Jtgl+iLssaFKoK+sjDWAxrZkF9SagtX8prlSc2e2EimAfL7JDn+W+ThFk73zEG+fFzLbscyqFnMFvChGefeUMsyDlgGn+dynsr38L/aer/D6u00ebjd8W17PBfDnrVPQkZBs/z9q4bOWynRcDc72BFZdQb7eBD9mHqCcXTIM03uEq+AP8/gVHuqgMfeK606cbsazqdxZ9afNA5aJwQYUNyhR6YyMRhbovsUWkR+L0cKFunEVosjF8AE0zEVUw2IrHz3dRre7wTW80TznD0ck/MnM6DedssBTqFOqROfUJiqNrR0oYXX10ZwHqmbOYB/CmQmjtfEQc5+e2pY7T2/WZHHCWQzy6lUmNgQRTZzZ/3v09Kt+zRv/s+r3x+1jxlsL6YFiZp2YFD0Lc1LMJMnuHUNe1AZXP1WW+cg9qI1O1XnO+zn7E/EXiG2ck4B3XLT5tjD+qz34lxKtmxeyMVZ3tVSGZehfa2e/3zpEPREAAidMnEeq2zo0uIPimN7IvHP1MLTOMeL2303DOBkuhTqEeQQQ6cRGc7ahRvnJmM/bYMAVS785HrxD6eOMbt33Tm1hMZUvTwI/aQqRfBZaL8O1WzuT+0Ylxx4x8WUHnEvspvCLePF2zWq1BfqgaA4R6lm89wBfjFjKf+AdhYqJFERgW13U+vYwJrjmME47pgNI6+/0D8uQjJyeAxOkTCHVH56Qnpn3Tm7lbZz9Obq66AE7DORsshTqFekQOfaKiONsRhXpGYFjno2lUXbzxjdu+6c1ONadQl4d95PvKe7OqRedWPIrDz1/iUnceSHN/unHguOTinnU/UTOb/bW2AZNhA21DhbrS6vkBT8PeOy06n/g3bUmY+ykIDI7rPZ8Gzto4RQVP8M5wTOvC987ektuBtXv/m/3+y6O4vrrPt8DK31aesfP63DkHrEifDSJ+e5Lpb7Ntv3n6Q3G2QHGex22xXUhup318lduXO4cOtLcUqQzk92gvVz0ner7VnK6FxOnTCXXTcrFex8chOo0dpQ5qNN2cFjK8y2k4CnXISk6OUC5MtFQCPvZf89LiwZ2PyjEsQn3uOJ9pp3w5euhl4npOZSe2s3e8+N7IPVziffOgFXPIgZ5TDTostU2rcvftMFZIjBDq1Xa9+M4O8Il/S/YHll1PYHBc1/h0GYfUmVKPcltJzIcoTukPIZmqcjbP3irP06jOzJGi+fCuDocufmW/X4pkdUjGH3X49vm5qM4X6H5ry/TyLJ4/8hye8myBKn8p7h8/brPtO9l5PeXZV8rGja3Hle2ViN//EBvxKX7f/xIfP195+nwAZ0Pi9HChXh0C1yzpufjROjlZ8wF0Cebu333TG8BN1XkLYKdeFk7DoUJda6PidcVBIDEu2QvF1Mkx1IuYT5QEcPuve9bStZS4f2hovHG+Xo4cfgba5E/alVrN2Yzvtq0BlnJGLAJP2eD7dhjbfkcI9Wr5e3h/G8sYj39j38TnYyQwWFRqfVrOvF5vsgHQ7JeJtrhvPZjCJkGZGrc01axbg83Nw1Nbh5MatiaY0jcPBjSI8vq9hoHoKeCuNE8kTo8Q6nqqbeEXi1AH9wJG4ihOw8FC3V0hCnU3I6ZYJgFnOyqqtfZZS7tQX1Kcr6+dnGIpstGfNMufc/Fez7L2D41zbU8aO0u8zDaLlNos1Luz2oarTX1PfbceFjd2kACp8bA0aPwbljufip1AUFFZfitbtyrkgv0gl0pHfEthUDOFZGrdiquboLRss9GuzjKmt5w50NuOxfMJgjqQJjMkTg8X6tBJp3EI9aV1xJ2GQ4W6xUbIssupHXTq/J0cpy4A8z8pAcj+nLWcZo+670oo3/Q6z5rYlmZ/6n7n6v3pn8VpyO1r2OQGQFcM5wFyxtjhM6Pevtq0uOJuEqHOpe8nDfZ8eY/AeFFp9un2vur4fH8qdwjH1DVTrfm75ZvR+74oAJb0xttGdOemNG/TeNyLO7kxvbOFfSrcq8gX6adGK9T/Up7MDnbgqvQ90y5vRMhpOFcnj/eoZ17g5LiKMLDeSjrtL6+jud5cipfO8q+1ERve+ShJDR+QDRbnZ7Cl2Z863xiRHzCX7U8vT+XpdIDsA6XxztLG0Db6dgBXHxj7EiOWvk88ODSGtzP+jcmcz0ZPYHBch326bnehzwOJFW44pq5VvhrdciqhLo3RPfBOe3hdrEaLvFxInJ5fqFf7XwyjcKFPfV/gzITTcBTqUNNzcoRyYaKlErDbP+6rleZkPrjzURXy1Ke+z2NLmz+1hLfITwLXbgMT6rt3Jz4vNvIQH/03cEnnqczpp+W7dHaAVs1NIdR56vspXIDvBAgMjus+Pu2TFihz7EnCMUWFeuMbcUKhXtlFDYhfyckNdXo8tKo6douevnyITjmBULePfvf3bfimb4NfypVszVI7DUehDrUuJ0coFyZaKgH3DKiQYupTPK9lg53BkIM7H1ah7hu3fdOXL28+N60trfGkMWP+/4rL1v70sqT1csO9+JArOf6fctVY0y7wbNZSW+X4cmvtUHEDDucLtvQdnMkfX+VBOfD7NwhbMg8Ni+uePk2hLv1lyHkjjpW+lj3qutULky5977UI17L9ZJrQLBVB4vQJhHp94E9vRMbQSamvB3gU5Z6/jKCrU+P6+yxm8H+J03AU6hBUJ0coFyZaKgG9/de3XM9lv2Edumau+o6Kb9z2TS8/AOIpm5kOfxWbjhm0QkNembMV8uoceX9661ulMmxcr/NHXq/TP8jTs5PsMmyifzfZwXmFVMgZdTmz9CRnlpTvTXFwYQjT8fsXguJy8/CO6yafVu3m6kPse4fGrS9eBWOayZcLsck/Xp1vhf3U93mFuvy2X/wWP1q2p1APGRWQOH0Sod7sYKl7GfPrf4qDXtR/H97lLFcTRfP0ViR9/uxSlxA6DUehDrUTJ0coFyZaKgGd/cuYIIo7SHV1+3G3nlNsVf29Ox89aKYZBd+47Zd+blu64klVHslHu2fTci1O8cHKlszX30Sdd3avxltq6xxebmQLQp67HDSRfQvVu5CXDcvlmmq9ZmacTsfYsUe9c81pdW+xykreRfz6fBPl4Uoufx1uAT65BALWuO7j0824VX03P8SHXP+sWlSsA1VT2CgY06xw7e9d/x71Tpw6ydL3eltZdte6CqXyTvZ85XvjDJYpYK8kTyROn0io5076dn0l7ovGnn0/5VUP/VG70lq+6Zd7II/TcBTqUBN2coRyYaKlErAKdUulUr6yUFft6YT6tHG+KYxN5gxpS2c8adxbq39vo2Om29/XeN7W5kLWaYlt22kHNTP4cC9+fUghUWjzTLRvz8VPeffzpdzq0j612CXUu5TUAMBPsb+7lNdSxXv+sZPTEo3PMsME7KLS06ePsv/90O6vZ4Pd+9dVbR0LyrQQ629PD+L+Nhe/2c/E9SRCXUm1PJ7eZhvTi/L9lHYvD0qFPZIJ8f5XO+UAoU7YUxPgBzYMYXIMw3GpudD+mOXIiZwwAnGkor9idiAnjFOqqWj/8JYl0/BM154j4lMU6hF6CWK4CIsdXZHIMTqTzFog2h/DTU7khBGIIxX9FbMDOWGcUk1F+4e3LJmGZ7r2HBGfolCP0EsQw0VY7OiKRI7RmWTWAtH+GG5yIieMQByp6K+YHcgJ45RqKto/vGXJNDzTteeI+BSFeoReghguwmJHVyRyjM4ksxaI9sdwkxM5YQTiSEV/xexAThinVFPR/uEtS6bhma49R8SnKNQj9BLEcBEWO7oikWN0Jpm1QLQ/hpucyAkjEEcq+itmB3LCOKWaivYPb1kyDc907TkiPkWhHqGXIIaLsNjRFYkcozPJrAWi/THc5EROGIE4UtFfMTuQE8Yp1VS0f3jLkml4pmvPEfEpCvUIvQQxXITFjq5I5BidSWYtEO2P4SYncsIIxJGK/orZgZwwTqmmov3DW5ZMwzNde46ITzmF+tohsv7LJvD19bXsCrD0gwmoAMgfCZAACayVAL9/a7W8EPz+rdf2rPmyCLjitFOouzJYFo5llBYZYVlGTU5bSnI8Lf9Tv532xyxATuSEEYgjFf0VswM5YZxSTUX7h7csmYZnuvYcEZ+iUI/QSxDDRVjs6IpEjtGZZNYC0f4YbnIiJ4xAHKnor5gdyAnjlGoq2j+8Zck0PNO154j4FIV6hF6CGC7CYkdXJHKMziSzFoj2x3CTEzlhBOJIRX/F7EBOGKdUU9H+4S1LpuGZrj1HxKco1CP0EsRwERY7uiKRY3QmmbVAtD+Gm5zICSMQRyr6K2YHcsI4pZqK9g9vWTINz3TtOSI+RaEeoZcghouw2NEViRyjM8msBaL9MdzkRE4YgThS0V8xO5ATxinVVLR/eMuSaXima88R8SkK9Qi9BDFchMWOrkjkGJ1JZi0Q7Y/hJidywgjEkYr+itmBnDBOqaai/cNblkzDM117johPUahH6CWI4SIsdnRFIsfoTDJrgWh/DDc5kRNGII5U9FfMDuSEcUo1Fe0f3rJkGp7p2nNEfIpCPUIvQQwXYbGjKxI5RmeSWQtE+2O4yYmcMAJxpKK/YnYgJ4xTqqlo//CWJdPwTNeeI+JTFOoRegliuAiLHV2RyDE6k8xaINofw01O5IQRiCMV/RWzAzlhnFJNRfuHt2xYpkdxFN/k/5W/7n+HL/8kOR6PQnyrawG/4+1anF2+iO3jp3i/GfA8/KK4EyI+NUCov4nrs0vxYqh7G3qRdvsoPt9vGg6ZP3yUhrq6fxF//hSZbbdit38Vz99tRjuKp4uNuJXP7A5fMi1iBFmOC1lm9R5ZloMsC/QYkvUEafSGa3LfisfPd+H0bcn3QjYEVe2z3UH8tQvr+CaeHu7FLwkmN8FWbHd78SrTpdBskAYwgfmYZSQEjPYv/P42Cwj5b7t7FPs7GRdScHxP/u54089wyjjv9V3oxbDpbOnHScbS7bn4ub8TNyanSjz+erohnNzPDmUD1/dB7C819HVUP+XnXtzdxP2d5PcPdqkkE1rbia5PfnwSF5tb2RfcicPnc/EttPfhs37804XYyA453h9fLu4wTFX9y9hS9uW7/70MRqXtla7SaTxrLSjUMzxInB4h1OXHanfes8P5j2fZMSn/2dzI364vxGWunIt8PsRL0XE2jbAc357E1aUKJPkPDQyVM+VPicOXDEIRtwOkI6IV3q061QMamTN0hXoVlJUJdiIz5cdLNZjh3egi5Ik0gAiLzSIFIqC1f/FxUK/Y7nYid/t8MGsJsSEQmlY29ngzb5z3+i7MbEsfTh8yltYD0JpOzAri7xS+au7Y1B1dXb9EnP8YIKx1eX7IeFEMbMvv5uE93r4Ev39TeeAy8vUTlXV/0WcQVpGgUDfpHBPTjFox4Vjqke5/L8PH1KD6Rk4GuvWIpj4U6hkUJE4PF+rQCIrBgcsOVjePqvPSnzGuOnDy4/h4/iHUs8qXrwAAIABJREFUbBgk1Ms8Zad8JzvkL0sX6kpUy1q8/HEMOJSNQNZbjoCIv3SE+tv1mRwoUQsMOstOFK8rIV41KyCWETrqUiINYGl1YnlxAjr7q07F1Ud31Yjtg4q/b6kp/Tp0uloGivOe3wW9LetZ0NBL6rw5qRnzq8ts9Vd3xmEN8Xeq9uBth8EFGdIBH/yy4A/y+xcc6aIy9GknZTzqCy7OqDeNHobpotxousJSqMct1MugoBPa+g5MHiw+pNhUy7LlUBS81CbPTwn/vfjYqCX7C59RV0v3f/4Sl7L3Z+uIVvU+/BS/5CqEtlAvhQm4hH66pjppzuyoTIo3+sx97F/OCgwaGY6ehL2APp0PfU76zpxvnPdNb6rVVLYcxqkeOKi/d+uIv1M1i2F2GFIai0gxDSoNec1Ez/jEv4mKwGxPSABtJ/blyxTqQ4T6qCXhJ/SZWV9NoR6zUC87LgbBXBiv22E+ygMLvhUHFsBLbYrZdKnS5WEFx2Jv/fKF+uerEFdqL5FpVUNR70yc331m+470Qh3fPjBrAw70MnZUAoFcaDY+9i9jSuhZ2CWgQzt05rroOnO+cd43vbk0cQl1Wc7eN23IOStL8KR5yjjGX40rGbKid33QIlLKlXrQysJ5uHTf4hP/TlNCvnVKAlA7ae5L124JpVD3FupOpnmOvbNYTGdEFd8PNdB7J+S5XsW5U9vHg9Q1cuKy8ffnb9JeV/dyxW1x6pRcgbt/Lc8baHtb/ywYuVq5e6YK+O5+v+ko3p4exP1tua1QLiqTZWmd2dIU6pdSnzXLLc8Men3un2s2ZXs5Vd5InD7B0ndHwwc+gJhQ7+75cHQET2UlzXuRAHusVgr0D5Vr8fmWHxDSXfpe79uXs+qHV/OBRxFx8S0K0gB882T65RCA7W/ZcrOc2g4vKRJv7GfsWYS6YzCxHmwc/10oCdjF2Ak4aTpua4i/w0nbnxzlr7aZ8N6AintGPeYVOHD8m8pQzPekBNztZCMesoOhbSsrKdT9hDrCVGnr+oyurTwgqnVWTvfsi1Isy22sL3IbqxK853L778f5vi3U5d+z83bUYZfnMsfyzCnNKuLqG5mJ5x9i8/lb3P/Kz1VprXQG390W6o3zscqyiPIMssZEaSnUZRr14rLc1fkuEQ+ChmzYSJweLtSrQ+CaRT4XP1onJ2sauUuIu/6uRqKQpe+9ZRVpCfVvhpUH1SEVojjAqDm73jr1XY54XW+yferZT+39t51QHNIzZ8oLaQAzFYWvOQEBo/3l3uHrh995iaoDFKX/y5Fn500KJ6jH1K+0dujmivOuuO/6ewVputNz3R1f0wyArkzpx9+p/HaIv95VszPmbQf9rRcmkaLbzjBVbYfny+/fcHYpPGmPV+VZR65VlXXs0h7S2PiGQmdGLRxsEKbGwcL6m9ASvs1DU3VXmVn+rh20NmoHjUYC360rrxrE/LfWDVJqll2ujC5vyzDmva6tYUicHiHU9S2u3VhPJdQLQ5diNStqYkLdVJ/uAIVRqOf2y5a/FEtpSsF+MCyVWVqMRRrA0urE8uIEjPZvfCDq3OQo9KO8GnKFSt0ufGaK8y4h7vp7Ucyplr2r7MMK9fTjL95S/VL6+2t7xlC/zUXXP9CJlPp2mphn083+6seaqZdLwB6v5PWRahZTVs8usOtBKRcJCnWMqe0sFjkLmV+R15xNdp2HYRTeqoPfz68+t6u/Grf3N/DdTaFuy7/lQ5ZyQ5OxLodcyN8RnTJcqEPLEk4k1Jt7NrpXxSVwmFx5dZrOmXuNxCHUS19u71eJfx8/0gaRBoDkwzTLJIDavzlYtZWjwO+tlSfLrLtPqYcL0PItAeK8S4i7/q6KAu4N9GHTTDuck3uQOMX4O5Sz67nhdqhGc4yd4bb41ouU3l5LV4FP9Hc0/p2oeHztxASc7aQ868jaJ+bSd69vgJOp6xo2zd9dh65Z/9799jRmqw97sen44Ofv+/aNWt7vdn/rqlda8l7TmUFInI5WqHf3VDf9yT7a4lquFr8IdQbY8uq0budVJ8pBoZ7zTeuaKqQBTPytZPYnJOBl/xXvU4fjjdGWw4V6FeddQtwVx9R2huxWj+lushjMCR5ASCv+TtX0B9uhKlB/aaV+lsstUqaqY4h8veJfiBcyj6gIIO2kvEGpe31kXRF3G+DsZ5uRnalLyGqWfXuL5aYbdt+HrZCoVkd4v9tVv0bZKNQzGEicnl+ou5ag25ZxVAPiluvZqgMK1IELTYeVhy/Iu9flpWZyO7Y6vOGHuGvtn4gnxiIBNj/cqd2oLw8aLq4ObrfaAP94SNlLgjSApdSF5fQn4Gf/9Z7Ejccbkw10nTnHB9t0cJdpdscal+bZMzyYk09M9Unr3ySSeGKwHRq1b8/YFDfC9FYJukVKzED94l/MNWHZhhDA2olrcNDdBijUu4xsTF1Cdq4ZdXDCkkJ9SNPzegaJ0ycQ6vYOsXX/BiDU69N0XaxAR3VlM8HfsQCbv7jucDyK89vb/j3xFOoTWIhZLoEAEgDretT7UR8/+3u3llDfoWX0iTf6d+g6c75x3jd9WZLmc5/i+bv9fPqhjNRzwzh5DgBRqDtNNMwOnWybKzj2H2Ijz2npXzHkFinOwp4wgV/8O2FB+epJCODtxDbQ6W4DFOq2geruGQCOg9Ise9SNV8faxLTnHvWeI3oLdY+D4DijnuFG4vQJhHotLnvLbcAlgsMCg2ska5JYOShTPMCq7NtLWXqN2bQc/upDc7+iZ6dyUO3mewhpAPOVhm+am0Df/sq/r8THXh4a1xF01QAfdPbG3DWZ9n1+8UZXFn1nzsjUEOd908+9Vcebk1yO/3R1KW7liU2tvc+q/iuIv1N5rbcdtAWpO5S73R957ZFuy4RbpExVxxD58vsXguJy8/BqJ9UBq90JLHcbGNYfXybXEEzNfQ37qe8uoa6Idq9JK2920p4ir+3r6E9md727+ffmga7Iqe+6vLlHvd0+TiLUmx0s6Voiv/ahPE1V/vfhXXakmwVVzvMgfn8U/1ZcqZTfJ5j/24+7Z2GfTElVqKs7Gc+Ka9Y0nQ3LvnV14qe8lDG/c1Hyz7cGdDqVy4ynWanZUVmw8QIUXS/UN5lwUnGnur9UxhN1f6j6t7XNppvbibuDVpvIlLZxnyoY558uavu4vgtV3KtiWN9p3N8F3NGsnbTONXbVXbDKq3aP4rW6Hkz+QzVQkXb8xcn6pfSxQ51zf6tba/WdttPq0wb86jBHan7/5qAc7zu8RKWsRh1Pi6t9s6q52wCFupmRnmn7u9i/R73JPzOMONOu+Cl8r9ruu5X9GNmRKb6H5vvI9e+vr6ptvB99d+vaOM971DVXzlGot+PKiYS6KoQaPboS94U4zLrJUnjvtVeDuQ9AcF8Nka5QLxuy9roY09L3o+T/0OafNXDNbGO8nyJ7ydhRWarlwpRbb/980O/+VynOc4G+3f0U+7sbx2BfmHLFlotvh65ffltnzifO+30X6gFKM1H3dwG3hl0gdvMpfepS+pRmOf4K4i9O1i+lnx3KvDVb3aoDCLszUeUzbpHiV/J5U/P7Ny/v2N7mH9d1KyrdbYBC3f79Kwef29+ioh9yK/shpeOY+t8+YvnyIK6v5BbYIlN1i82r9iwuUz9oL17vvovqk+Xz7tbVtvrv/s/9nbgpZ1S59D2zPBKnBwj12MJReuVBDJdercPXiBzDM11SjrQ/Zi1yIieMQByp6K+YHcgJ45RqKto/vGWjZOoS0+ExMMeABBCfolAPCDxUVojhQr0r5XzIMWXruutG+7sZoSO6WE5pp6I/xWFf2gGzAzlhnFJNRfuHt2yUTCnUwxt6xhwRn6JQn9Eg6KsQw6F5rTkdOa7Z+tiSonUTymvPdoJ5ATlhnKZORTtghMkJ45RqKto/vGWjZEqhHt7QM+aI+BSF+owGQV+FGA7Na83pyHHN1qcARa3PdoKRIieM09SpaAeMMDlhnFJNRfuHt2yUTCnUwxt6xhwRn6JQn9Eg6KsQw6F5rTkdOa7Z+hTqqPXZTjBS5IRxmjoV7YARJieMU6qpaP/wliXT8EzXniPiUxTqEXoJYrgIix1dkcgxOpPMWiDaH8NNTuSEEYgjFf0VswM5YZxSTUX7h7csmYZnuvYcEZ+iUI/QSxDDRVjs6IpEjtGZZNYC0f4YbnIiJ4xAHKnor5gdyAnjlGoq2j+8Zck0PNO154j4lFOorx0i679sAl9fX8uuAEs/mIAKgPyRAAmQwFoJ8Pu3VsvnW7/4IwESiJ+AK05bhXr81WMJSYAESEBPABmpJDvu5Ud9gP6Ekpo2He2A8SUnjFOqqWj/8JYl0/BM154j4lMU6mv3EtafBBIlgATARKvuVS1ywnCRE8Zp6lS0A0aYnDBOqaai/cNblkzDM117johPUaiv3UtYfxJIlAASABOtule1yAnDRU4Yp6lT0Q4YYXLCOKWaivYPb1kyDc907TkiPkWhvnYvYf1JIFECSABMtOpe1SInDBc5YZymTkU7YITJCeOUairaP7xlyTQ807XniPgUhfravYT1J4FECSABMNGqe1WLnDBc5IRxmjoV7YARJieMU6qpaP/wliXT8EzXniPiUxTqa/cS1p8EEiWABMBEq+5VLXLCcJETxmnqVLQDRpicME6ppqL9w1uWTMMzXXuOiE9RqK/dS1h/EkiUABIAE626V7XICcNFThinqVPRDhhhcsI4pZqK9g9vWTINz3TtOSI+RaG+di9h/UkgUQJIAEy06l7VIicMFzlhnKZORTtghMkJ45RqKto/vGXJNDzTteeI+BSF+tq9hPUngUQJIAEw0ap7VYucMFzkhHGaOhXtgBEmJ4xTqqlo//CWJdPwTNeeI+JTFOpr9xLWnwQSJYAEQCHexPXFpXj5IyFsH8Xh/UZ8T5SHqVp6TpLLmeRieGj7+Cneb74Vfy3SSn6fkl/5r+Wjx7drcXX/Iv4oxuq33Yrd/lU8f++mzP/slf74Jp4e7sUvacAq+92j2N9JO+qzH2xdKydd3Y9P4mJzK8u1E4fP56I8dlZZ/Z8uxOZWPnX4kowGFzfZB13t+ih94uHqXrbp0iOUy23F+c+9uLv5Xvinwb+Vb7bSNTD2fG0rtru9eJVGCuxqQWzn4hTkJcwkWgJB41UeuMXj57uowr6p5jLeX1zKeC//frY7iL8mFMTCMI3WZViwExBA4jSF+gkMw1eSAAlMTwAJgKUoyksjBdWXFFTTFy2qN9iFuhQuu/Neec9/PAupeYqfWXy+XV+Iy3wUpMjnQ7xk/63GRZpiP8/KK73sEJ7JDmGW124nVCk/XvIO4hS29OukHcXTxUZIvd2pJ4X6WOe3tevaf5Q4lz6Rue6H9It8IKf2uVKoN/27TicdSg7aNWJBNeiSOZvImsTHSzXApxugGlvPsc8j8W/sO/h8vASCxquimm7hXcc99Yg7fbz8dCULw3RZdWZppyWAxOmBQv3/E+//+H+Jf/nPfy/+7uJvpq0FlHtenn8S/1X8/d9diL8R3f+GMgETFXn/7X8X//Df/k/wGSYjARKYm4AzAJadbynydlLgvVCoN0zkFpR1YkPaUkh3Z5sr0dOZofFMrwZZrj66M5r1TKluIGCMD/p00t6uz+QAha6j6ubKGXW7lUztuhp0UyL7tVzBUOelZtoPx29ygEnNf5vsoB9gKe3Z8ynly1dCvGpWkozxtRDPOuNfiJcwj2gJhI1X8hspv5AvfxyD2UUMVwOnckRW/GXFM+rmb0C0LsOCnYAAEqeHCfV//Z/iH/7Hf4j/+vd/J2qdXgjYf2/W9L+I//4P/00Y5WyWzz8b0PynTv42gnMKdVkObf1PYGG+kgRIwEjAFQDzD6kSi3vxsVHLvDmj7hTfWtp60VN2VHRLuHXCxze9yfClYAs9m4N2fGvBqNsKQKE+NmS5VoBAy3ONQl1p+GKlRjXAVIp3cOnv2AoGet4V/wK9htlESiB0vDr8/CUu5RIh2wBo9U09/BS/Lm9XK9Tt34BIHYbFOgkBJE4PEur/+j//QfwP0Z5RVv/2v/6mOcP+r+J//sP/EP8sHGK9h6YU/L7PNTOackZdvSev23/811hWFJzEv/hSEoiagDUAFrO6UqXLvdbHYj82hXo4oV7ObBuYFmKoFtO+6c2ud1Kh3tyXrt1GQaE+Nmjo2rW/zS12KG3YE+pyQ8WCzg1AOoBjbcHn4yUACXWfePUqxJU6c8NwFok8XCM7kyObRb/7rP/32vaou5gW3z4VS+6EPL+l2M+/fTzIvkixn+x4FG8PV+K+c/bK63PnDJhGXs/fnsT11W2+HUf+ttIO+fkZMq+nB3F/W2wLkyuOHuWKI91ZA/3zYWTa/V2xCqnwdaT88TaL6EqGxOkBQh0Xqf/7/R/F//1PwmNmXGngfJb9v/z3fxDDV5ZPLdRVMeVgxX+US+2jsz0LRAKrJ2AOgOUMWSkiHSIxcZJQh87KQCd6HIK0J4Z805sLZFymPNKObk4b8ZAdwGebeaVQH2kGobODbTWG/n0WO/QGkeoD/rIDtQ6v7Y7r2ApN9DzSAZzo1cw2AgJTxKtjtQqtf6hca8uOFI2VaF+VUAe+AaXQldsDXuT2gPwsDXk+xvk+F+qN8zCqs1fkeRjZ2ZjdQZLGVoM/Mq/y/IzqrBZ5sOrjx21+Voo6x+VDnhGTZ9Q7GLD6bsry/Nz/EJvP3+L+V/7e1gClq/wR+P6SioDEaX+h7rHs21+oF7Pw/0kjgLvL5P9Lc0YfXPpuzUOIrLz/8p/lPvf/Q7xnqwHy33/SzJz7121JrsOyksDyCRgDYPlxqw4zo1D/+vrqGFx32FaZ5Fz8aJ2qrhE9PSHeyb77d9/0Rvesy40tgcb93N7xLfdwumZdbVyLshSHlC1p9hanOD5l3w5DlqabhHp9xkGbv5yVut5k5w5kPzUr1Z1pGl+1oDkgHcCgL2RmUREIGq9KgagZxMorXbRBUWz3ac6ur0aog9+A5iGomgNV9WevGGKcKa/m4ZcdUV4OqLS2MBjtqukbOcofVSNYQGGQOO0t1HOB+rf2vecKTiGKdSLXxC6bpf5nzd707iz7/34X/5hP1ReH2QFC3ZlHIdT/SW2yr5fd5/X99/4Mf5CZ/wV4EYtIAgsloA+AnQ5FVjcKdbNQ1xu/LWLiEer+S6Bx57Z3fOVVXXLqQc1V2AW24VowTTEo1PW2CSrUq9sI1LvqGwlM5xtkS0OLpaqlYNcdXId71XQpkQ7gdG9nzqcmEDReVTO5hm9ld/B7lUId/AaYDk11OIz2kFHXwMkfzeoujW3q83r6KyV6fxtY/lO3h1jfj8Rpb6Gei2nd/vH+YXI+Il1OZ2fi+99bM+UKrf6U9faAgUuoI3mUQr27VN+w1L83WBCrG7BcJLBOAtoA2NzT1b1ejIfJNRzFvUS7ThyJUHftDRzZDJxLScs9nFY/cnPlqe92Q4UV6u13qWWoP4GZ8vZezjjPtkA6gCObBB+PmMBU8UoXn3pibpVCXa4mQL4BvRV9Jic6iqPcqy7/P/t9/r4Xt3IDum4Zuv6q0/Kw3I747tmmMVt/2ItNpzi998Llj7hxRFQ0JE4PE+rQ3uzyMDnk9HbLAXKFIP7b7p711hJ8h1CH8iiFene1gOE6Ngr1iFydRSGBPoF+AHQtd42zwz21bZ0dOufVU8OFenV9D7j03Xjdj7x66zo7uX+6k7kRTvLydLHJL08X+ru1KdTH+rNZqLtWMzTf7LaDu5z6q9zcz82TAukAzlMSvuUUBCaLV4ZtS63YvFahLr+Vzm+AU+iqbTZXcptNcSpcx3nCC3VslVf1Xmf5T+Hty30nEqcnFOoKXCHWe7PkHai2ZeTlTLvWDuUgACbUWzfHVfnVAwn6Zf0U6sttAiz5mgn0AmD5gckOb2mSkQe5ZKeryqVru3Mhd2CLu+y01HX8kA6dnYXlMDnT7HLQU99N+4rD2g/j5BJvboHIGXW73XR28N/y4LYD5D3GpafQ05MmQjqAkxaAmZ+UwHTxqr1f+vKQD062BOSKhbo6Zf3pYpMf4KbZg15e/2i65q461K06tT13I9vS9zAz6uBEBYV60HaNxOlhQl279F1XduT0dcsBcipL02x463WYUO/NyneKTKEe1P+YGQmclEA3AFZ3mzpLBX6wnPksIwHWobPVRSd66s6K7R71+m++6cvyNJ/7FM/fpxtewTnZBg7cApFC3V+o1yclo23XbQeo9VKoQ5iYaH4CU8ar+kCyR3F+K68E6w7IrlqoK1tbvgFWoWs+L2c6oS5LaznNv+e5FOpBG/MkQh0+TC6rintG3X16OnIdnGuPOpKH59J3HiYX1FmZGQmEJoAEwPydPEzOeJiccQl301p60VMNjHTzMOwl901fnTRsmrkI7FB4x1e51LU4y44I7wpHt0CkUB8g1DPkak+m/B/S3w6vN6I3ZiO3RzwdvxVXq7ntUJVC+evVh9jLu4fbedoHlwK7n3d2ePzzzpoPLIDAtPGqvVy6N6O7eqFu+QYMEuqGWGPJyyi+dbaxHhCn7mE/im/y6rhsGJxCPWjrR+K094x6fpr7f3TuRs+FsDwKvnH3ebnv3LJH3XiAXJuD9uR1VY7/9TfyKrUL8TflgXOivNatP5PvzsNPqLsHGILakpmRAAl4EkACIIW60N5LXQ1ejBDqTSGt7m3dyW0F9cna8r8P73IGvGnUujOCpK+FmcyrvZehyvTHXVdceTpRI7lXx7cjHOv96m6BSKE+TKi3/U16ULXFpdzaIn1dLif9a+Z0bju0hPrmNjvRX2Za+Jouz+G+NcWTePyb4u3M89QEpo5XVfzVnQtCoZ6Zvzl4WH0DHEK3HrBWV0AW95nfyvvMC4cKv0ddZdz+9uZbANXn+kXeu67iXuPMFQr1oE0bidP+Qt10iFr3jnJVFd196I0qluLZVOvWqfHd/Ft5u2bUizdY8/AT6tnp99ChekFtysxIgARAAkgAzLPijPoUM+o52/xgnPvsDID8pwRUf3ayNCqevu4omh0i5BVnvh3fZuenLodbIFKo2xu4vV3LU5LfHsTVvezYNs5iKk9zv5RT4vnmCLcdWqWQRy+/PbT9OBPt+9dJt1uAoU6bDI9/Y97CZ2MlMHm8sm37oFAv3EIzE+4UumoG+0HcV+JcnZ2zF68/fouNXDI0jVAvvtXqvb+asbN4952cTS93lTnLH2uLiLNcSJz2F+q92es4Kz9tqbCl9NOWgbmTAAnYCCABkARNM+ok0yVAf4rDJ2gHzA7khHFKNRXtH96yZBqe6dpzRHxqgFCXWLXL31eEe+31X5GpWdXlEkAC4HJrF67k5ISxJCeM09SpaAeMMDlhnFJNRfuHtyyZhme69hwRnxom1ItZ9X/5z38v/u7ib1bG2XBd28oosLokEDsBJADGXoc5ykdOGGVywjhNnYp2wAiTE8Yp1VS0f3jLkml4pmvPEfGpgUJ97WhZfxIggdgJIAEw9jrMUT5ywiiTE8Zp6lS0A0aYnDBOqaai/cNblkzDM117johPUaiv3UtYfxJIlAASABOtule1yAnDRU4Yp6lT0Q4YYXLCOKWaivYPb1kyDc907TkiPkWhvnYvYf1JIFECSABMtOpe1SInDBc5YZymTkU7YITJCeOUairaP7xlyTQ807XniPgUhfravYT1J4FECSABMNGqe1WLnDBc5IRxmjoV7YARJieMU6qpaP/wliXT8EzXniPiUxTqa/cS1p8EEiWgAiB/JEACJLBWAl9fX2ut+urrze/f6l2AABZCwBWnKdQXYkgWkwRIwI8AMlLpl2OaqckJsys5YZymTkU7YITJCeOUairaP7xlyTQ807XniPgUhfravYT1J4FECSABMNGqe1WLnDBc5IRxmjoV7YARJieMU6qpaP/wliXT8EzXniPiUxTqa/cS1p8EEiWABMBEq+5VLXLCcJETxmnqVLQDRpicME6ppqL9w1uWTMMzXXuOiE9RqK/dS1h/EkiUABIAE626V7XICcNFThinqVPRDhhhcsI4pZqK9g9vWTINz3TtOSI+RaG+di9h/UkgUQJIAEy06l7VIicMFzlhnKZORTtghMkJ45RqKto/vGXJNDzTteeI+BSF+tq9hPUngUQJIAEw0ap7VYucMFzkhHGaOhXtgBEmJ4xTqqlo//CWJdPwTNeeI+JTFOpr9xLWnwQSJYAEwESr7lUtcsJwkRPGaepUtANGmJwwTqmmov3DW5ZMwzNde46IT1Gor91LWH8SSJQAEgATrbpXtcgJw0VOGKepU9EOGGFywjilmor2D29ZMg3PdO05Ij5Fob52L2H9SSBRAkgATLTqXtUiJwwXOWGcpk5FO2CEyQnjlGoq2j+8Zck0PNO154j4FIX62r2E9SeBRAloA+DxSVxsbsUfQ513hy/x/D1RIIZq6T8Ub+L67FK8GJ7ZPn6K95tvxV+LtNtH8fl+I8p/LR89vl2Lq/sX8aeEvt2K3f5Vcu6mzJ/A0h/F08VG3JoMWby8Xc5xdm1zwt6fv3EnDl/P4ruwc8rq/nQhNrJSa/RD1DrGjs3xTTw93ItfL3+K9r0V291evMoGrfc09I2mtiDz356Ln/s7cWPwZfQNU6RDOoBTvJd5xkHAHde34vHzXVRh3FRsGb8vLmX8ln8/2x3EX7sfyMnaXRwcm6WYjWl8VWeJJiKAxGkK9YngM1sSIIHTErAK9e1O7M775ftxJwXVuF79aSs94O32zocU1RpQ5z+epTgpX2YWoG/XF+JSCichynw+xEv23/JfWmI/z8sn/dvTtfj9Yajwx4tQr5lOqMuydt//IeumRiN6vvVD3GVikUJ9gHv2HnEOwJX8Cx+QTqAdQMLLUgr1dlv4kPnXg09j34GXBk2JdADRvJhueQTcotIgvFtVbQ9I9oR6c+A7eLuLj/ksTOOrNks0IQEkTlOoT2gAZk0CJHA6ArYOvZxKaMyE8VPQAAAgAElEQVQIn66MMbzZ2vmARI5BgMqZmDM5E9MTSlXnrjOj45veCK/sXIIzRqARnB/UovzmwQEKdRC1NZnODm/XZ3JASDMwo3ztSohXzUoPvCwWu6nZxKvLfGUH1Fbwt45N6fTXsS/g81ETsMd1OVAt10u9/ClX+xiqUsa03U7IEVbxl86M+rTtLj68czCNr9Ys0ZQEkDhNoT6lBZg3CZDAyQhQqGPopxLqZSdOt4xb18HzTW+sXdG51C7TxJBoUzk/qBTqI+jij/btMM3ATF0i1wBLvTQ+pi0LTn/FkTPlAgm44vrh5y9xKUeYbKuO8pgsBzwPP8Wvy9uOUJ+63cUHfXqm8dWZJZqWABKnKdSntQFzJwESOBEBCnUMvKvzodt33s5ZJ2RK8WKYsemJad/05rrZBD9GRJ/K+UGlUB+DF37WLNTlaQDIGRMWO+nPCHAJdVn0iQaHYCiahE5/HZM5n42egDOuvwpxpc5rMa0EKVY+ZbPod5/Z2S7tGfV6WTzU7qIn5i7g9EyLMhyP4u3hStxX522oHVWP8ryNzhkw3rGsOAOmOHMge5s8M+ZxL88qWNnZPG5rz5MCidMU6vPYgm8hARKYmQC8R/38XPy4vJR701e2Ob2wh7Pz4Vw2bBHqjk5g3Ul0iKFyubxreTGaboAvOj+oFOoDqPo/orNDKbDVWQiPh1f74W7enVtAqFfbORxLif2rO/gJp78OzpkPLoEAEteP5Yy55lC51qDVt/wQ1u7Sd692twRojjLOwVSeKFodeLuVWw7UUTrVeRjd759nLKvsJc8TeNz/EBvxKX7f/xIfP1+5FfBE/onEaQr1ExmHryUBEpiWgFWo614tP16Hd3U697p+1s5HdQhck4kc2Li7aRy6pxEyLsHc/btveoOJjHsmA5jU+UFFhbqWaVHA4gC0tcxQDTGL3g5yBup6k+1Tz35ZR9RwGrtn51ZOl+c3IFgHieoD56CTtIdU3PMZp7965sfkyyKAiMpvxpUgxWy5KA5JbM6ut05992h3y8KnLe0cTJWYvvro3lZh2GbgFcvKPOIZTEzAJUZXAYnTFOqjMTMDEiCBGAkYA6BcViYas+dHeSDUgzwQKj+cPL7Tm6dmaxfq+re3hWQsQt2xfH4kSOcHFRbq7oJQqJsZ2eyQXe3XWtYpO6WvnZscvDq3qhwU6m6PZYrYCECisvTt6grJohbdNmIU6nl6qN3FBmhAeeZk2i2edluOVyxb35kCA0w8+yPOfoUsEYX67GbhC0mABOYggATAuhzxzYjNwUi9A+t82EoTh1AvOzKhD5Era+70J1SoWwaDeI+62+uddiiFw315fVpnBsmrc+sr1OOZrUI4uWkzxVIJoHFdF3OqQ+TKJfEOoV4yygS7qd0tFWSj3PMyPYqjnFRQ8wrq9/n7XtzK2YTWIK5vLCtvVlGruh734k5uTF/nhr94nBGJ0xTq8diLJSEBEghIAAmA9evWdzCOXYAis4hlDsOFerXnEVz63t0j2bdf2CvZmu7o9CcK9YCt15yV0w7Vo3Wbbp1s7du5RWbUuUd9FtvzJTgBVFRWe6LLAUSdKAeFel46Q7vDix5tynmYqu0EV3Ibj1ri1/+NEurKOq3BFMMhddFaIL2CId8zCvX07M4akQAJSAJIAKRQn2hG3bSkstL2+R3r9ez3yFPfTXewB2wJTn+iUA9IO4RQl3no9uBOIdR56vsstudLcAKwqKyEdT7IeXm4EBt5bVtLEHoJdUO7w4sebco5mFbnrMjT9l/leQDljPf4pe8drHLL3/WKt/zF4mTOfoXqy37JXywFZjlIgARIIBQBJADW7+LS9zb3kTPqjVkV2z3q9d/sKxpcV665/h7Cp5z+RKEeArMzD6cdmjlYhLpui8Sw69niXI3jxclJnQmWRgAXlXKWVR5gpsT59vFRnN/eipfunnUK9cz80zM1D1jbhDoey7pezAPmTt2ukThNoX5qK/H9JEACkxDoB0D5UZJLysSP7vVN9cm1U+1vnqSCgTL16XzoX6kX9fVVMJ0D+gzLhH3TV2WZadmx84NKoR7II+3Z9Oyg7H/1IfbdQ+NMg0Um/5P22xTHxjsPSyyLKGelnuSslNQ4jdUhs2BwvsTpr84cmGDJBPzieikQ8xq3toqofzAth/dpd0uGWZR9cqbGlWiGwUCvWCZtfPFbdn+ah2tSqJ/aLZE4TaF+aivx/SRAApMQ0Ar1i03WqRZbeZiKvD9d3lAqPuResGw3GK9na9hh7Ix61rsTTyXv6kqyD/GSH68vl1a+i9ZNP97p8+JOeSVb0zGdH1QK9UnacTdTrVCXdzznbbjfrnWDb6XPZH64k3GguBZvK5//86ez7LfqPBdpiwJVdxtnoeNRLlO9iepgJqe/zmItvuRUBPxEZR1HVZvoXTFo2bfu0+5OxSLUeydnqr6axeqG/IpJedf5529xfysPxiwq0V2hhseyejCmup/9Jc+3NzATChjzcRJA4jSFuhMjE5AACSyRgDYAyiNU3x6uxH0pzsvO/c/1noDq2/no+4JN1OcH4zR5b2UHpD/7Webqm36+LQvODyqF+ixhwqtd71/lYJDuXOPOgU3lveviITs7QTuj3qvdVvalf4r93aX43rjucRYIwEuc/grkwSTLJeAd123nLJiWvpu+p8Z2t1yequSzMJUD1m9PDw1xruKMvFf9x+9sxU9/K5lHLFMrgB7y0+OznxrY/Clj5A3Pfj+VZyJxmkL9VNbhe0mABCYlgATASQuwkMzJCTMUOWGcpk5FO2CEyQnjlGoq2j+8Zck0PNO154j4FIX62r2E9SeBRAkgATDRqntVi5wwXOSEcZo6Fe2AESYnjFOqqWj/8JYl0/BM154j4lMU6mv3EtafBBIlgATARKvuVS1ywnCRE8Zp6lS0A0aYnDBOqaai/cNblkzDM117johPUaiv3UtYfxJIlAASABOtule1yAnDRU4Yp6lT0Q4YYXLCOKWaivYPb1kyDc907TkiPkWhvnYvYf1JIFECSABMtOpe1SInDBc5YZymTkU7YITJCeOUairaP7xlyTQ807XniPgUhfravYT1J4FECSABMNGqe1WLnDBc5IRxmjoV7YARJieMU6qpaP/wliXT8EzXniPiUxTqa/cS1p8EEiWABMBEq+5VLXLCcJETxmnqVLQDRpicME6ppqL9w1uWTMMzXXuOiE9RqK/dS1h/EkiUgAqA/JEACZDAWgl8fX2tteqrrze/f6t3AQJYCAFXnKZQX4ghWUwSIAE/AshIpV+OaaYmJ8yu5IRxmjoV7YARJieMU6qpaP/wliXT8EzXniPiUxTqa/cS1p8EEiWABMBEq+5VLXLCcJETxmnqVLQDRpicME6ppqL9w1uWTMMzXXuOiE9RqK/dS1h/EkiUABIAE626V7XICcNFThinqVPRDhhhcsI4pZqK9g9vWTINz3TtOSI+RaG+di9h/UkgUQJIAEy06l7VIicMFzlhnKZORTtghMkJ45RqKto/vGXJNDzTteeI+BSF+tq9hPUngUQJIAEw0ap7VYucMFzkhHGaOhXtgBEmJ4xTqqlo//CWJdPwTNeeI+JTFOpr9xLWnwQSJYAEwESr7lUtcsJwkRPGaepUtANGmJwwTqmmov3DW5ZMwzNde46IT1Gor91LWH8SSJQAEgATrbpXtcgJw0VOGKepU9EOGGFywjilmor2D29ZMg3PdO05Ij5Fob52L2H9SSBRAkgATLTqXtUiJwwXOWGcpk5FO2CEyQnjlGoq2j+8Zck0PNO154j4FIX62r2E9SeBRAkgATDRqntVi5wwXOSEcZo6Fe2AESYnjFOqqWj/8JYNwvR4FOLbt/CFY46LJID4FIX6Ik3LQpMACbgIuALg8e1aXN2/iD9/ypy2Yrvbi9fn72JNn1E9pzdxfXYpXgyQt4+f4v2mpFSk3T6Kz/ebHrse5+1W7Pav4vm7njKW/iieLjbitrKdvqDtcro8xv53oz8d38TTw7349fJH5MUx+ZGd07jSredpV7sW4ijenh7E/a9m25ZWkX53/nMv7i5l+265nskupjYg7bs9Fz/3d+LG4MMxWMPNKYZSsgxTEWC8Ck92LNPj04XYqI+W4VsZvsTMMXYCSJymUI/diiwfCZDAIALmANgUeUpUnYtz+YaPD9Wx34nD17P4PuiNy3zILtSlqJZ8ur/zH89SpJT/ahagb9cX4lIKWCVe83w+xEv236qv0hT7eV4+6d+ersXvDwNzaUv1msmF+vFJXGxuc4G+3Ym8ivm7+50xCvUQLcTWsckGeS5lO849rGrbyu8+yoGUXifZJdTbbSCPE0VNIu5wIx3AEPZgHnES0Nqf8WqUscYyVfFpI+PT2e4g/ionBPgjASROU6jTT0iABJIkYAqA5ai2+lj+28pmz3WGtgp1SIgYhI7slJzJTklPsFadxa14/HwX9cS8Z3qj15YDMZ38R3q5jtPb9ZkciNAMCKg6Xgnx2lphQKE+0gTZ48aOTelvalDoYFixoVY/HIS4qUeZ1PBQvnoEFvDyEZXP1WW+ogNqIyFq7pcH0gH0y5Gpl0SA8Sq8tcYzDV8m5rhsAkicplBfto1ZehIgAQMB+0zx+mbOTY4ylVAvRezu8CWXubffrhO4vumNjl8IttCzFn1OvgMCFOohgpVrBUhr8Ad64QChnuVbL43X+Tj06gkTIR3ACV/PrE9MgPEqvAHGMw1fJua4bAJInKZQX7aNWXoSIAEfoV6IuJBLopdugGmEeiliDAMiPTHtm95M3Sb4x9jK3EkTcga3PxjRfxeF+hj+5bM6f22ukvFfUjpUqCutnq8CCT0oNBWnEPkyj2UQYLwKb6fRTC39j/7ZLDvx2D0Ho3g++958k3Hr6l5usyo2+sitV/tXuW1Pc/QLlHd4XMwRIEChDkBiEhIggTQJ2JapYcIqTS7dWk0q1E3Lgsvl79XfHSK2l95gGzTdANPaBKLaD/0ol1vbDxejUB+AvffI6M5yL8cRQr3axhHfCh2kAxjCHswjTgKMV+HtMpqpQahXK8yk2P65/yE2n7+rwzBbfZVSqO928swNeVaGOpj1XB6MUp6LIvpxCM47PC7mCBBA4jRn1AGQTEICJLA8AmahrkTVXojf9+K2ONhM1W5rGZFeXu3xEruWEvcPkzsXP+5uGiP3GqHjEszdv/umN1TPuGccx2FMqeckTxi/3mT71LOf9KHeLEiVI4V6ADNo9qiXqzGGnkkwQqhXy9+HvjsEEX0eSAdwurcz51MTYLwKb4HRTHVC3bgqR7PKrDqHo38uivbb55N3eFzMESCAxGkKdQAkk5AACSyPgG3mrVBVnRPf1b/GNzM2NXm7UNe/vb0iIRah7lg+PxKk7YPaPm08F+yH3jJECvWRJsge79vBZHfDFX7woXGIvcYOEoQgQqE+HcXl5sx4Fd52o5lqhHousPUDfb2/2bbaaAa7vfIOj4s5AgQo1AFITEICJJAmAdvBL7pToaecjY2Z8CRL331nyH3Ta4CO26fsthDyQW3vBewO+iDCz12OtacwC/V+Z7d9hV9xNeAkQj2+AT7EX9fuSynXH7E/45WfB4xm2hPqjQNJ5Sq/Tac4n8Wqv2pg3HrGTnfA0jNvPxRMHYgA4lOcUQ8Em9mQAAnERcAm1LUnQ0d8MNSUZE8p1P9S3icLCvUqfQ+I7wns/kSRD2qeaz2T2z60kELdn3r/icF71I0+NmLpO/eohzAp85iAAONVeKijmfaEdn1zhK20w4S6Z97hcTFHgADiUxTqAEgmIQESWB4B8x51wyndRafbLAaXxwAp8SRCvdq7O9Op76Y72xEAYBrkg1plpR30oVAHUVuT6ewAraaYQqhHPLjn5a8hDMM8oiLgZX/GK8h2o5kaZ9TBFTmDZtTBvCECTBSaAOJTFOqhqTM/EiCBKAjYOvTa69ki7nRPCXQaoV7PKtvuUa//5pu+TWSqK9mab0E+qBTqU3pqnrfWDtXMtuVQt+BC3e6z05Owv8HLX09dWL4/OAEv+1OoQ/xHM/Xco94rlE2oe+5RhyrMRJMTQHyKQn1yM/AFJEACpyBg79Ab9g+ra7Y+38WN5i7SU9RhjndOI9TlAvCnC7G5lXe8dvcEG5YL+6av2My0/LjHSb336kNzd61JwHFGPYQ/mzo2lf+YrsoLKdSPb+Lp6lIo947xDnXjgEYIAzCPRRBgvApvptFMLae+976TWfHlrSJPR/Ht5rvIuiTGU9/r20dakxDWlWadvMPjYo4AAQp1ABKTkAAJpEnAFADL2Vd19/V2dy7OxYe8hvSPkH1u+a38FO9rUumyzlMJ9eZebcU6v+atONBL/ffhXTx/b/pe85RuJH3+7FyHAGo7aZvbzG/k3X75fbYNX+oLOAr1EJHG1rGpxXpmlOpWB/Eh/e5PZqn+wFG5TcN0yFzlu/njH/LO4iqr3aN4fb7JO9GR/ZAOYGRFZnECEmC8CgizyGo0U+2MePu7l/dJVKB5kTGrE6/K5+X35o8KQsV3p4pJvRjmkXd4XMwRIIDEac6oAyCZhARIYHkE7B36a3F1KzvcZbWs918vr+4+JZ5OqKtSqJH+K3FfDIRkOsl6X71v+vmux9Kv0JDlfWjXL+s87V/lIERXvlGo+/ilKa2zY6Nmux/uxa8POfhWN3BplnPxc38nLqVd2pZxHCbXK4gaAPgp9neX4vu3GCV6XmAnpxDGYB7REmC8Cm+a0UyNS9fV7PaDuP9VDwLmA4178XonZ9PLMNN8/vIgrq9uczGvvqvyYNZXOfLdj0hg3uFxMUeAABKnKdQBkExCAiSwPAJIAFxercKXmJwwpuSEcZo6Fe2AESYnjFOqqWj/8JY9OVPrYXLh68scpyeA+BSF+vR24BtIgAROQAAJgCcoVnSvJCfMJOSEcZo6Fe2AESYnjFOqqWj/8JY9OVMK9fBGPXGOiE9RqJ/YSHw9CZDANASQADjNm5eVKzlh9iInjNPUqWgHjDA5YZxSTUX7h7fsyZlSqIc36olzRHyKQv3ERuLrSYAEpiGABMBp3rysXMkJsxc5YZymTkU7YITJCeOUairaP7xlT86UQj28UU+cI+JTFOonNhJfTwIkMA0BJABO8+Zl5UpOmL3ICeM0dSraASNMThinVFPR/uEtS6bhma49R8SnKNTX7iWsPwkkSgAJgIlW3ata5IThIieM09SpaAeMMDlhnFJNRfuHtyyZhme69hwRn6JQX7uXsP4kkCgBJAAmWnWvapEThoucME5Tp6IdMMLkhHFKNRXtH96yZBqe6dpzRHyKQn3tXsL6k0CiBFQA5I8ESIAE1krg6+trrVVffb35/Vu9CxDAQgi44jSF+kIMyWKSAAn4EUBGKv1yTDM1OWF2JSeM09SpaAeMMDlhnFJNRfuHtyyZhme69hwRn6JQX7uXsP4kkCgBJAAmWnWvapEThoucME5Tp6IdMMLkhHFKNRXtH96yZBqe6dpzRHyKQn3tXsL6k0CiBJAAmGjVvapFThgucsI4TZ2KdsAIkxPGKdVUtH94y5JpeKZrzxHxKQr1tXsJ608CiRJAAmCiVfeqFjlhuMgJ4zR1KtoBI0xOGKdUU9H+4S1LpuGZrj1HxKco1NfuJaw/CSRKAAmAiVbdq1rkhOEiJ4zT1KloB4wwOWGcUk1F+4e3LJmGZ7r2HBGfolBfu5ew/iSQKAEkACZada9qkROGi5wwTlOnoh0wwuSEcUo1Fe0f3rJkGp7p2nNEfIpCfe1ewvqTQKIEkACYaNW9qkVOGC5ywjhNnYp2wAiTE8Yp1VS0f3jLkml4pmvPEfEpCvW1ewnrTwKJEkACYKJV96oWOWG4yAnjNHUq2gEjTE4Yp1RT0f7hLUum4ZmuPUfEpyjU1+4lrD8JJEoACYCJVt2rWuSE4SInjNPUqWgHjDA5YZxSTUX7h7csmQZk+nYtzi5fxPbxU7zffAuY8bKyQnyKQn1ZNmVpSYAEQAL9AHgUTxcbcfvHnsHaPhz6D8WbuD67FC8GVG1GRdrto/h8vxHdT+5RfpCv7l/En5L7dit2+1fx/F3/ccbSz29LKydd3Y9P4mJzK/6InTh8Pou8unZWKsXx6UJspJPuDl+SEejsK0rm6tgcj2/i4epevFQOJ8RW+tz5z724u/le+KfBv5VvttI1wMp8nx7uxa+XP9Km6rcV291evEojxdjNdHFakcussqpG+8N+PKCNJE56PNPEAflUj0I9o4XEaQp1H8diWhIggcUQ0AXAt6dr8fvDUIWPF9m5l93vlY3w2oW6FC678x6w8x/PQmqe4mcWn2/XF+JSQZWiJs/nQ7xk/63n7JN+blv6CfV6IMFnUINC3R1ebB2b2n+UON+J88x1P8RHIa5rW5QipOnfdTqpwMXhXQ6ulMWpBl2U4+5E7sp5vJABQztA5a7JtCmQDuC0JWDupySgtb+XH3u2kVNWdqZ3j2c6U0GX8BoK9cxKSJymUF+CQ7OMJEAC3gSQAFhnWgqrrXj8fBdrWonlJ0B1ZjAI9eJD3BMyVWexw9o3vdEjprGlD6e36zM5QCE/wruD+GtrWpwz6t4NufOAqV2XKxEykf1armBotHA5k3g4fpMDTGr+22QH/QBLac/eIJ7y5SshXjUrScbWc+zzfvFv7Nv4fGwEtAPVRVzC/NivjcRW/ynKM57pFKVaaJ4U6hTqC3VdFpsESCAQAa+OavHR6AurQIWJOBsfAaqvhr5DV4ob3RJunfDxTW9EOpEtUU61YNTNtFKoj20KrhUg2ECbxQ69AaNpBn7GcnA97xX/XJnx74sjYN76hQ5G+7SRxeEZVODxTAe9Ns2HKNQp1NP0bNaKBEgAJeDTUbWJRPR9S02HClBz/XQdunLZpJzd/GosIS4z6Ylp3/SW0hSzRqH3eEOcmvvSdfXmHvXRzURnh3JwBB9os4iQ0obVkvZ6lj20T42GYcnAJ/5NWQ7mfRoCZlEpwPMvfNrIaeo491vHM81L3DuHxXTeRfGdzOLOtydxfXWbb7eRv61crZWfj3EUb08P4v5WngOT/0E8yhVFrVWBofIpgPfPkZHv3N8Vq5WKRI133gl5To1cYpbvFDrIw+PkpiKDUC+3L7VWfRxlHR+uxH11Poiq5qOsf+dMnFD1bOUj20HjzBO1pWqvWbE11BeROM2l70Pp8jkSIIGoCSABMP9qFod+RbrXdGrIkAC1FsIi1E1Me8wdM82ojdB0A6C6OW3EQ3YAn23GijPqA9C3HrEtP8WFtHu2sCn6q1USyraH13aHdGyFJnoejn8TvZ/ZnpaAbUBLnRni9mO/NnLa2s7z9vFMlT6tz23ZysMu8uMuapHdOhujFLO7nfgj05TnY1TppVh9/LjNDsjdyjTnH/IMmOwQTf22MpVmVD4y52o1nBSsP/c/xObzt7j/lR8W24q/pdiV73yRZc/PDJHngJzvjUK9ZKNi77+Vh3Q2zlXI6qh4yfNB8mp2Vq0F5rWT78tYq0NG1YEn5bkk6oBY7UC8vx8icZpC3Z8rnyABElgAASQAqmoY958uoI4hiuhaStw/TO5c/Li7KU4xzwjmJ8Q3P5ouwdz9u296Q8WntKVdqMsDxqREV7MddrGoO6CpU5miM4CLzhBesJw8wiw/NYmQ+qTrNn85o3O9yc4dyH5q1qo7gxQZQjT+RVZsFicQAb39ffzYt40EKnjE2YxmajqHRc2KF/GlNZNcps80aeMas+ahgB1RXg4qTpmP8eyVpoA1lb20b2dG3bRlTP371Uf3dg3DdqSpeU3QX0TiNIV6xEGBRSMBEhhOAAmAlcgMOEI6vMSnedIu1PVlaouYWIS6Y/n8SLx2oS6v6pJD/GqQHxPq7sJQqOsZBRXq1W0E6l31jQSmJfTZks9iCWcp2HUH17mtO30KLP5NXw6+4TQEbPbH/Fh/6nt5awe+zeQ09Z/irWOZWrfY6QarjeetWM7NKPL5S/Mg00D55OXXrxjr/c04KFFYpinUNw/Zneo+N2horzENVM9yWb7Wx12TCp6Oh8RpCnVPqExOAiSwDAJIAPTf27qMuvuU0r2ku383ejv/OIT61LZ0cnoV4qq8N924LI5L3318U5c2rFBvv0Etz/wJzJS392iGWwY5lk3zeST+hXwf84qLAGJ/ux/Xq0uaNUPbSFw0wpRmHNNSXJvihebvlgPXjKLZItR1V8/i+TQGBw57sekg/fx9L27lkrJqgNl1WFz5d7msXK1j/+PcengUR7lXXf5/9uu9T/3jDLxCT+4gPkWhHqb9MhcSIIHICLgD4DJPcw6N2SlAnVdPDRfq1ai/a5Ra1/logZjelggnIZfpbbINg6a7tSnUx/qvWai7VjM03+y2g7uc+qvc3M/Nk8Id/+YpB99yGgK4/U1+HKKNnKbuU711HFPXii/NN2wG4YkLdf3ATZe1t1B/fBTnt/KQPJmRfhWZ2hZwJWfyi1P0Oi/U7YsfNyBhF/wU6lO1LuZLAiSwOgLOj6pradZKiCECVN08bf5FcOr7DLbEOLnEm7vzq13StxJfRKqps4P/agq3HZCyWJdIQhlMl8gZ/6Z7NXOOgICX/bVLhgO1kQhYhCrCOKaoUG/MuEcl1F0rAjqU0Rl1tfe+XPqu2YJYnTtTnXKfv8e29J1CPZTHMx8SIAESmJCA66O65ivZmtgxAeor1O1XWvXZ+6Zvl2cOW+KcTAeSqTK7O78U6vagoLWD81q8bp5uO0ChybgnEnp60kSu+Dfpy5n5yQl42Z9CHbLXOKaOVV+WPepTCk98Rr08eNd2q0kDo49Ql3fJ6Q+TMw9unEyou1b/QZ5UJ0J8ikvfPaEyOQmQwDIIWAOgd8d+GXUeUkpcgJpy14se0ymu1XV4ndFz3/RVaWaypRen6vTZ7n5Et0CkUB8g1NUQSHbQkfwfctvB4bV5K0GR3/FNPB2/FVerue3Q8q+rD83duXHfr450AIfECz6zDIVAKBsAACAASURBVAI9+6s46eXHHm1kGUhGl3IsU+M3znHqeyxCvVxBpN/ape5zP4pv8o70bAWep1CXc+Ry59gmv2quOuHeJNQNsTfwCgRVjTZ7w+n8IzwLidMU6iMA81ESIIF4CdgC4JTXeMVLRF8yLwGqzcLUoas/pupe1/yat/Jkbfnfh3chr0pt/HzT54/OZUtfTk3h+Fnt83d3finUhwn1Zkcv62Bl9/aq/yXv7pX7G9UOx/oUX7cdWkI9OyQwyzS/T1ebZ1wtH+kAxlViliYkAa2o9PJjjzYSsuAR5zWeafsb179H3XAvePNqtoKPz0x4sEPWGmJafdPL8lf3izfPZvEW6tnXPL/qVf6vcu95PbihrsQs7m2/Le6db6QrOgPZ6fHBBjZkvP+jLmwv4r7x/vYRPovEaQr1EYD5KAmQQLwEzAGwvnbm8fNdyFVXq/75CtA+LFuHLj8I5r4QSqWA2r8+N+5hb+bom34+W/pz0o36uzu/FOr25mjv2MhTgd8exNW97Mg1zh4qT6q+/P4tn+0BtiC0SiGPGn57aPtx1nnbv8rBpjgDCNIBXHXgS7zy+i0iPn7sjlWJI+xVbzxTlaWaeX4Q9w2xaYwlgWeIRwvYjEhR/l/NGKtEu7zr/E7OppfhcJBQV6H5WlxkV2CWq9G6vIp3/fgtNjLd5IfJXR7E9ZU87K74nmw7e+XHtgEkTlOoj6XM50mABKIkgATAKAs+c6HICQNOThinqVPRDhhhcsI4pZqK9g9vWTINzzTKHF2DDAELjfgUhXpA4MyKBEggHgJIAIyntKcrCTlh7MkJ4zR1KtoBI0xOGKdUU9H+4S1LpuGZRpkjhXqUZmGhSIAEEiPAjypmUHIiJ4xAHKnor5gdyAnjlGoq2j+8Zck0PNMoc6RQj9IsLBQJkEBiBPhRxQxKTuSEEYgjFf0VswM5YZxSTUX7h7csmYZnGmWOFOpRmoWFIgESSIwAP6qYQcmJnDACcaSiv2J2ICeMU6qpaP/wliXT8EzXniPiU9yjvnYvYf1JIFECSABMtOpe1SInDBc5YZymTkU7YITJCeOUairaP7xlyTQ807XniPgUhfravYT1J4FECSABMNGqe1WLnDBc5IRxmjoV7YARJieMU6qpaP/wliXT8EzXniPiUxTqa/cS1p8EEiWgAiB/JEACJLBWAl9fX2ut+urrze/f6l2AABZCwBWnKdQXYkgWkwRIwI8AMlLpl2OaqckJsys5YZymTkU7YITJCeOUairaP7xlyTQ807XniPgUhfravYT1J4FECSABMNGqe1WLnDBc5IRxmjoV7YARJieMU6qpaP/wliXT8EzXniPiUxTqa/cS1p8EEiWABMBEq+5VLXLCcJETxmnqVLQDRpicME6ppqL9w1uWTMMzXXuOiE9RqK/dS1h/EkiUABIAE626V7XICcNFThinqVPRDhhhcsI4pZqK9g9vWTINz3TtOSI+RaG+di9h/UkgUQJIAEy06l7VIicMFzlhnKZORTtghMkJ45RqKto/vGXJNDzTteeI+BSF+tq9hPUngUQJIAEw0ap7VYucMFzkhHGaOhXtgBEmJ4xTqqlo//CWJdPwTNeeI+JTFOpr9xLWnwQSJYAEwESr7lUtcsJwkRPGaepUtANGmJwwTqmmov3DW5ZMwzNde46IT1Gor91LWH8SSJQAEgATrbpXtcgJw0VOGKepU9EOGGFywjilmor2D29ZMg3PdO05Ij5Fob52L2H9SSBRAkgATLTqXtUiJwwXOWGcpk5FO2CEyQnjlGoq2j+8ZUczfbsWZ5cvYvv4Kd5vvoUvIHNcHAHEpyjUF2dWFpgESAAhYA6AR/H29CDub1/EnzKj7Vbsfr6K5xV+PPWc3sT12aV4MYBudzSKtNtH8fl+I7rdj6PsnFzdS9YlbMV6L1l/13dUsPRH8XSxEbeVAfUFDdkhMvrT8U08PdyLXy9/Cn/aiu1uL16fv3dYGJhmvrcXdzfd9IiXry/NEH+VPWOtb9rpLdteSAdwfd6znhq37Y/Fy5zOThy+nsX3/7+9s1mN5NjW9up72LavoAU6xpdQGnhoDQS9wTcgKGE8aYEGGvZQA4E0OBvT+tANGNzQ8ElDw5F8B8YuUF3B9j7XYJ3Iv6r8i4yVmZFVkZlPweFstyIjYz1rVVS88bNCmvv1qOT69kgOTCe8fHg1/fn02fZmilCffpC0tFDTTyPUW0KlOAQgMA4C9R1gbsASCaTDQ2PMSu6MyIo+b5YP8vccRhw5FzYLH8NoGTEqfg5PPorRlenHPqB7PDuS45htVs+WdZ2IblP+8fZMPq8ssbi6k+i1gwv19a0cHZwnAn2xNPEUhVPy7qo4zIRfnunKFE8Fvnn+4SkaIPNpItAlXuXwpMNEyLj9pRkAEmnTJVD2f6W/XJm+OJo9zfqtDQrzXYknGRHq5ejozRShPt0vXEfLNP00Qr0jXB6DAATCJlDbAaY/lFVBvh2U37w8yZwW1huFj2ol0jKgS1lXBOtG3C6kwLpteWv4ZZMxpfp7hmsdp8ezN2YiomZCILLxVOS+sMPANvDdTh75nFjoaW6wj/ePV61p4/aXZgCoJUG58RFw+t8pGhHqLqFeiQoXU9ffxxdmtLgnAef31NSPUO8JmcchAIEwCdR1gE1b9RLR5VfchUmm2Kr+wqd+QJeJ2LptkXUCt215K1vrZEw/b1Q5tZ0QaBj42iYp+jV5kk/3j1ctlnH7SzMA1JKg3PgIOP3vFI0IdYT6+OJ+bC12fk8R6mNzKe2FAAS0BJqEenXlMhNd2fk87VvGX66/8Kkb0GU7FCw8K2K6bXk79ybB38dbdqFuTnWqzmg2DHyzXQaqHQx9rBj/s33i1boDIsZSjsFx+0szABx/NGCBjYDT/wj11sHTm2me+fFazk6vkuMH5rNY3pi8JtUcL9HfKnlbzFGy2jwoaf3x79HbW1P/eXIMK67/Ic2bUsrRY44+3Nybo2yV5DKm3PWpXG1yr9jbGLfPbC3L5/y5uTQ7EznH5YwxZ0wh1J0MKQABCIyUQPNZ1khcvaQJzcwP0tlB/Rbmkdreptl9hE/yngahbhOeFWHqWL3RClltuTaA0rJNEz/RGfybh3szMGnK5OteoZ1jjoS2rugVr007F2yTR3UxPNCujbYsmsprBoA+30ddYRFw+h+h3tphvZlmzE1+nCi76nOaJ2dl8prEer2mr8nnbVmYJChJGpRUFJfzmmT1L5fybMpk+Qc25c1kwM3qPE7CujBlDrM8BdHvV/7IXy73SlwueqeljdkuxehdN5cnciAv8vnqk6xMcl4y27tDzBlTCHU3REpAAALjJGDtAM2P0Gam2fxQLsw88POzSfB1Q9b3rafrEmllfz2Uk4v3stWkNQLUJZjLf29b3hKSzSum/eK4Pp62kzxx7fFg5cIi2G1CfZtdXLcy38+OsT/dPAFXl/zw0CTHylaq7McVqjsxxu0vzQBw7LFA++0EnP7XCvVNItCad6WJM+fSb/Vmmk0Uxpo8f0WbpV+yTixaFhds9eeTnpZEeSa08+2J/u10Vb65pK6N892J6KvvccYUQt0XauqBAARCI9DUAa7ND9dplq07FVgPZvtX44JoaAZ6ao9r50Hda4oDs1CEumP7fE9ejfFU2fpntvxX4qk+i/icbxzo4pL28VpcLaobmFa3vUctG7e/NAPALvx5ZhwEnP5XC3W3vQj1lJGLacNOnLr8OY3HuOomt631N+RTSev5TXHjTbWNbfO0uGNpbiWc31OE+txCAnshMB8Ctg5ws5XMbDN7uD8WedjeqT7HrNu9thLH4RSGUM8GEUNtH9f8oBbPEpbP529XzvPfwoVZhX9nXYWfz/dVa2nveFUPcMftL028aplTbnwEnP53iUquZ6s4vTfTBubVCUTXanXN3xvqtybLbRTqa1mvo/9LULx8vpJzc2a9MDGzWcWPdiVedrgGc3zfLZ8tdsYUQt0nbuqCAARCItB0prgiyNdmUH5wLOZUlzIxWEiW9mtLb+HTQ6hvZvGVW9/ts/7Dz+xrflATT9iuW3NnUe7nyXk83T9eq7FSv3I1bn/p43UecTM3K53+R6i3DoneTFsJddcOsZrfPG9CPdpaf2ry9mzSwxVYlXdQlJPdNSXGaw194g84YwqhPvEIwDwIzJhAtQP0l1l8Slj7C58Asr7v4HozzQ/qJi5qtyCOW/iFEvP949VMpZgzmAcmo1IyYWeyL78xk3SVRE7j9lereA3FubTDGwGn/xHqrVn3ZjqIUM/t3PIk1De5XjaZ4tMp6LTftB51iBY8Tk1fakmM1xr4DB5wxhRCfQZRgIkQmCkBq1C3ZSIfQSbnIVzZX/jUCZrtqnLTPerbv7UtXyQx1JVs+bdoflAR6kNEaLHO/vFq6svv4LhcyYG5Wqh67AWhPrw3ecNQBJz9FUK9NfreTFsJdccusYYjPHVH+PRb3+0LGnXn6KsQXVv2W2Of9APOmEKoT9r/GAeBWROwr6jXbW+f7xVt/YVPvaDZXttyIy9PufthNxloi2e425bfBLelPt/BX+EUvfd0JZeVpHG2SYdxCz/fPLvW1z9eozdvB8HL5bPc3ZWuJ4obN25/aQaAXX3Ac+ETcPofod7aib2ZthLq250/1WvbmrO+DyPU637XTB959FlOCr+BCPU2geWMKYR6G5yUhQAExkSgtgPMXV+S3TEa2bS9l7QkKsdkcMe29hc+NkGz/WGP7hlfmjtgDWkjiuJ9cSYXwJO5xz7f6Lblk2eHvJIt37paoZ7dHJDehxvZtzL2RRZWk9qNW/h1DC/vjzXGq/UqqRNzRdt3kr/lfjMxFLWwdpfNuP2lGQB6dw4VBkPA6X+Eemtf9WbaUqjn851Ev5nVe9RL4xVPW98rd6O/fJar8/TudkNtuxNum3Bzc996esf7HBPztg6oaJzw5o28vr42PvrGFGgu0eXNPAMBCEBgzwRsHeDanKO6Pr0y56hyiVIiofVunhlLhxPqUQAkSWmuUvEaayKT5by6Cp0FS9vy2yu0bl6e5H1eiXmOv1pOJh3u43XRPmOgLC/vzSREuTHjFn6ecXaurlmo26otZ+CPQnObQLJ+UDluf2kGgJ2dwIPBE3D6H6He2oe9mbYW6ulv6O32Zpq40bbfGE9CPf7dLrwzmiQw96qffI6PCRWOs5l+9PY6yQa/ads78/s35I9xa8+F+4AzpiIxj1AP14G0DAIQ6E5A0wF2r306T8JJ50s46TgNXQo/6AjDScdpqqXwv3/PwtQ/07nXqIkphPrcowT7ITBRApoOcKKmtzILTjpccNJxGroUftARhpOO01RL4X//noWpf6Zzr1ETUwj1uUcJ9kNgogQ0HeBETW9lFpx0uOCk4zR0KfygIwwnHaeplsL//j0LU/9M516jJqYQ6nOPEuyHwEQJaDrAiZreyiw46XDBScdp6FL4QUcYTjpOUy2F//17Fqb+mc69Rk1MIdTnHiXYD4GJEtB0gBM1vZVZcNLhgpOO09Cl8IOOMJx0nKZaCv/79yxM/TOde42amEKozz1KsB8CEyWg6QAnanors+CkwwUnHaehS+EHHWE46ThNtRT+9+9ZmPpnOvcaNTGFUJ97lGA/BCZKQNMBTtT0VmbBSYcLTjpOQ5fCDzrCcNJxmmop/O/fszD1z3TuNWpiCqE+9yjBfghMlEDUAfKBAAQgMFcC5vrduZo+e7v5/Zt9CABgJARc/TRCfSSOpJkQgEA7ApqZynY1TrM0nHR+hZOO09Cl8IOOMJx0nKZaCv/79yxM/TOde42amEKozz1KsB8CEyWg6QAnanors+CkwwUnHaehS+EHHWE46ThNtRT+9+9ZmPpnOvcaNTGFUJ97lGA/BCZKQNMBTtT0VmbBSYcLTjpOQ5fCDzrCcNJxmmop/O/fszD1z3TuNWpiCqE+9yjBfghMlICmA5yo6a3MgpMOF5x0nIYuhR90hOGk4zTVUvjfv2dh6p/p3GvUxBRCfe5Rgv0QmCgBTQc4UdNbmQUnHS446TgNXQo/6AjDScdpqqXwv3/PwtQ/07nXqIkphPrcowT7ITBRApoOcKKmtzILTjpccNJxGroUftARhpOO01RL4X//noWpf6Zzr1ETUwj1uUcJ9kNgogQ0HeBETW9lFpx0uOCk4zR0KfygIwwnHaeplsL//j0LU/9M516jJqYQ6nOPEuyHwEQJaDrAiZreyiw46XDBScdp6FL4QUcYTjpOUy2F//17Fqb+mc69Rk1MIdTnHiXYD4GJEtB0gBM1vZVZcNLhgpOO09Cl8IOOMJx0nKZaCv/79+zOmK7XIm/f+jeAGoMjoIkphHpwbqNBEICADwL2DnAtj2encnX3LM/pixaLpVzef5TvZvjbWM/pUc7eHMudxRGLmxd5ep/BSssubuTl6b2UEa4fz+T06k6et7BleXkvHxthr+X26EDOzTPLh1dTVhMRph1Hps3Re0xbHkxbVI9pqjZlKpyMXW+ODSGL3SIKG9a3cnRwLr8tH+Tvi5f4f2eY6pu1lIdXE6fKNk+xmHtgY77ft9dy9SkXc1FILBZy+O5SLo6/K42BbfFr+w4sTF2H8u7yQt4H3GG4OU0xOrApI0B/5T8WBmdqfujWt0dyEP3wWX9X/NtFjfsjoOmnEer78w9vhgAEBiRgFaAbMbeQ5eGhyGplxF2s7uTm5Uk2+nPAtoVUdbNQN4yWhlHpc3jy0YiU7B/tQv3x7EiOE+Wc1mNYx/8djUPyYn/7gvXjrZwebwWrVqhvBjhxVf4FbZVTJuQs70pFeDJvYLE1HZQlfzfC/uyzrGqDI+Pm366QYlHTlqaBTTwpZCZP0giThYndJHpXssom5ioDYJdQL34HVqv8pFP95JTGjqHLaAaAQ7eB+vdHgP7KP/vhmb6VqA87MH3Ym2jyVjdDbQzNJoX5ffDv9WFr1PTTCPVhfUDtEIDAngjUdYCPZ2+McKwRTs7V0T0ZsYPXNgp11ay+RejYmG4EbHViZCPszQ6Hm8OVnBtxpRLqWZ3LpSzv7sxOAP8DlqZ4qm1jZn8yK1G72yCJR/cEkTVudxAfob3COrDZ8DbC+sGyY2P9KLcPIu+3s0zGPIdQr/NdVM/pcbzjI9SVL80AMDTf0h5/BOiv/LHMaton02ZrEOr+vb2bGjX9NEJ9N77gLRCAwI4JtJv9zn7o3KJpx2YM/rqhhHomLutEbL3wTATTyqwk3EcrCelqs0aobwXvpawOoi37uxHq2Sp+3Yp51qbFwhyxeK6LK8eKfOb5GU8i1QW/awdI+10xHYR63LDt1nhNjA7+RS69QDMA3HWbeN/uCNT5n/6qH/+9MXU2G6HuRBRoAU0/jVAP1Hk0CwIQ6EfAKtQbVzfbnInu175Qnh5GqDtEaCo+y9v71iaJzts0iU42qHSKoHQ13ZxbiLePJ2frdyPUzYHC5Fx5JabSgZOYs/LvPsmxWXqt2JE/n27d4phxnN8Eku370TRYbrdddDMTksSMekt8rmWWOA7hu60ZAIbQTtowDIFa/9Nf9YK9E6Zpn1KY/E3/LfoNuZDt8Z7FzYNcro7jXYLVT/YbuM2VUimj2jHXCxkPOwho+mmEOmEEAQhMkkC7FXVzyqtwXng+WeUGFeq2gYB1wLgNRZ1QL68kKFepO0R8PSfLSkZ+8uDgOk46V5mUUOwYyBh0E6AdjBzBI1U/KJL2NdrVdUXdVLo5xuF/YqivKzQDwL7v4PlwCdBf+ffNTpg2CXVztOvOHO2Kkt8emqNhq8NLuT94kevPUQ6OKDeHSXSZ5eU4PJELc8QnGsk83p6JKZL7pDlPEOr+g6RljZp+GqHeEirFIQCBcRBoO6DPzkfbEn+Nw+r2rXRtJa4mkzuUkwuTUX0zl1EjdFxC3PX3WAMl2W8bV9Qrg5pdC3UzCErzHhTamVsB+fhdvRB0nk8PWAS2jzJ/T9gn4LruOugh1Dfb37u+2x+Xck2aAeBwb6fmfROw+Z/+qrtndsK0QahHLa8fn7Tb+t50LK07HZ7sQkDTTyPUu5DlGQhAIHgCtR1gLsFXMisdmbHNRG7/IQze3M4NbBbq9dUWxfO+hPp2e/n2WrjdC3Wj1Csr5slAaLvKWhXlzVfaqa526+zxcT+o3ylj2fKp3uLu8lHEMdyjCZoB4LgjgdY3EbD6n/6qc+DshGmTUHdeBarY2RPwcZ3Ojhnxg5p+GqE+YgfTdAhAwE7A1gFG139dX50n923Hn2i72Dt5J5/0WcYnBH6Qre+uFXPX3w1f54p6YdU6c8gehHola3h1AqFyrKJuMJaPKRLIWb9hbVbUi1s+bds9fayoKwbIO+4zNAPAHTeJ1+2QgN3/5Xinv9K6ZSdMG4S6fbefdkV9uN9HLUPKFQlo+mmEOlEDAQhMkoCmA8wb7hSGk6Qksk+h/lvDXbHN/nDdfe1fONnjqXRjgCQJ5pLkdun5gFLiOJVtZgKpfQbziQZpzqy2R1o2j1onh3oI9YCPJ7Tt/6YfOfOykP7Kv793wnRAoT7XPDz+I8FfjZp+GqHujzc1QQACARHQdIDb5mpnpAMy0FNTBhHqmy3BFsGs2H7XKGazwczm+EIGI0qqY65D2yTVMQl1TEZ1H6kBm+Kp0FaTlTdKHld7PCDORn8hL0cH5g7uejbcmd4c2HV+UCXdG0KoK+LY09e0dTXt+r/W1fNA4ATor/w7aCdMhxLqil1s/olRo4uApp9GqLso8ncIQGCUBDQd4MawgAfcQ8MfRqg3Z+LWJLNpEurZ39xs/K2sN8ZTbsX8/0t0XU71veW73v9f3W6CgFdo3ax3U6LWDxtuDbsQvAv1vtnmh+XVqv8btinUvgcC9Ff+oe+E6SBCvbTry8fMtX+8s6xR008j1GcZGhgNgekT0HSAMYW12fp6EN29Pc+txsMI9e0Zc5OmVrbJ3iLe6d3jjrvOux1FGO4MXnM8ZdunTb4Ds57/bO5PL9gcxdlmF4Ap8VyXzT5s4RdKj2Hzw3byxnyPH+7l/fZagqTpPoW66TNuT4/NrghzdKTh+MY+man7v302kncPRoD+yj/a4ZnmfifyR6dcOU3EIcSdz/tnRY06App+GqGuY0kpCEBgZATqOsBsVXNz1+jqbpNUbvnwIh/Lg/uR2dyluUMJ9Xzm8ihhX3LNW5Zh3/z3w5PhnW/x2tz3er297zX1zTY7v5hr4T7mroWrs3ZfQn17TVvUqtqkP5sJirhE9fz55kaCjFWdfeWr8bp4fNzPaLafJhbm7hRembgzkyPJP5cnUVz5Dor+WJm43FS1vJH7j++9HK3w7RXNAND3O6kvHAIu/2e7muiv9D4bnGnUlE4r6vmJcdNfmetsTJcnl0/m9zJ3M8Vm3LMx2fyemP6r8DOsx0FJDwRcMRW9AqHuATRVQAAC4RGo7QBNxvejq0/xiuZ2MP9OLgv3godny5AtGk6oR6024vvsVK7ic+MpcXOu/PK+TnBnIttubeOd6vFj+xPq2QArakV9O3PXhdVds5O7OrDJ324GQ0bL/ut2Dmyi1e7rK/m0MjGXv9lhcSjvLi/k2EzGFXd+uoR62ebklojLi2MzaRTuHlInp/27khYMSMDp/1x/Q3+lc8TgTOOfsCTHSWGyV7Uibn5fzG/teXadzeY3pul3dZ67CHXe3k0pZ0wh1HfjCN4CAQjsnoCmA9x9q8J7I5x0PoGTjtPQpfCDjjCcdJymWgr/+/csTP0znXuNmphiRX3uUYL9EJgoAU0HOFHTW5kFJx0uOOk4DV0KP+gIw0nHaaql8L9/z8LUP9O516iJKYT63KME+yEwUQKaDnCiprcyC046XHDScRq6FH7QEYaTjtNUS+F//56FqX+mc69RE1MI9blHCfZDYKIENB3gRE1vZRacdLjgpOM0dCn8oCMMJx2nqZbC//49C1P/TOdeoyamEOpzjxLsh8BECWg6wIma3sosOOlwwUnHaehS+EFHGE46TlMthf/9exam/pnOvUZNTCHU5x4l2A+BiRLQdIATNb2VWXDS4YKTjtPQpfCDjjCcdJymWgr/+/csTP0znXuNmphCqM89SrAfAhMloOkAJ2p6K7PgpMMFJx2noUvhBx1hOOk4TbUU/vfvWZj6Zzr3GjUxhVCfe5RgPwQmSiDqAPlAAAIQmCuB19fXuZo+e7v5/Zt9CABgJARc/TRCfSSOpJkQgEA7ApqZynY1TrM0nHR+hZOO09Cl8IOOMJx0nCgFAQhAIGQCCPWQvUPbIACBzgQYqOrQwQlOOgJhlCJedX6Ak44TpSAAAQiETAChHrJ3aBsEINCZAANVHTo4wUlHIIxSxKvOD3DScaIUBCAAgZAJINRD9g5tgwAEOhNgoKpDByc46QiEUYp41fkBTjpOlIIABCAQMgGEesjeoW0QgEBnAgxUdejgBCcdgTBKEa86P8BJx4lSEIAABEImgFAP2Tu0DQIQ6EyAgaoOHZzgpCMQRiniVecHOOk4UQoCEIBAyAQQ6iF7h7ZBAAKdCTBQ1aGDE5x0BMIoRbzq/AAnHSdKQQACEAiZAEI9ZO/QNghAoDMBBqo6dHCCk45AGKWIV50f4KTjRCkIQAACIRNAqIfsHdoGAQh0JsBAVYcOTnDSEQijFPGq8wOcdJwoBQEIQCBkAgj1kL1D2yAAgc4E3APVtdweHcj5s8jy4VU+fmd/1frxTE6v7uTZlI0/i4UsL+/NM287ty+UB+s5PcrZm2O5szRycfMiT+8z29Oyixt5eXovZSLd2Ol9s22iaceRaXPkI9OWB9OWBpe2xt+O08KEyKG8u7yQ97YYWT/K7fWVfDINTsLKPLO8lHsTiOOPqtZ41Q+080P2fa2PzeaXWr4D0Xf/3aVcvA/bT+7+T42cghCAAAQgsCcCCPU9gee1EIDAsASaBqrrx1s5PT5PBVKzUH88O5LjRP3Jcnlo/v9K7uL/jvRgXrAOa89QtTcLn8zm4tsPt02MYQAAIABJREFUTz4aAZr9m12od2HXxjf5Vq1vj+QgmnWJP0t5eP24Q6Fe5LRa5Sd1akTi+laODtL4WywlCau7zSRD3YTHUP4fW71d4lUOTzoI60yo5327Mm5KJ1aM3x6e/MaYT18g1H3SpC4IQAAC+yGAUN8Pd94KAQgMTMA2UN2IRzPQvjlcybkZeFtX1M1K+ptjs65cXi3eCK2F3Lw8yWZxeWCbhqi+UfhYVsmL7bAI9Q7sWvmmqNIT4bs0ovfOCN5dC/U6TtGK+elxvGOjHD+PZ2/M5E/NRE8UV6ci9zU7E4bw/Rjr7B+vWqttE1Db3R4hT9Qh1LV+nlu5/5Wnn/5b/vj6R/nh6IsAjE/a86t8Kz/+cCRfSPm/fTYxrfvL7+XDP//LZ8XUBYHBCCDUB0NLxRCAwD4JNA3oV8uHeIux2fser8LahHomqOr+bhVb+zS6w7v7C596QdOeXVKP1jd5U5N3RZMml7I6iLbs73hF3Tqhsd0+vY2hTOiNf5KnQ7j1fqR/vGqb0HCkwzYJpa16B+UQ6juAPMZX/PmLfPj5L/n2xx+koNPjf/89Z9FX1TJ5eyvl8390PFvgtkuhbl5ss3+MvqTNsyCAUJ+FmzESAvMjYBuortdrefs2OQWcbZeuF+qZyLKIvnSw/saI/r+bDrgHjr6/8KkTNN3Y6X2Tg5rubjAq3ZybX6dn60MR6qadlTjpcv4+8CDaYfP6xGvz5Fo5ZhuEerajRrXjZIdwcq9CqO+He+hv/fOXD/KzFFeU//P0k/zr13/LN99/kGyhOS73exvBHVmeiu5/fyPff/indFuzHnJFPWrjn/LLh5/lr29D2VEQesTQvn0TQKjv2wO8HwIQGISAZqCqEuq2wfgIBusasH2ET1J/g1Dvwa7ZN5llmejNhLljgkADxFKmM6fNMYnt5MH2PL1ZVX+4tyec69HeqT7a2Q9xqFqOsuT+tp14c6+ohzxJp+n/phoj2GUjUCdSk3/7/ZvydnDbvzfQTVfZ84K/vS+GFurRorqZhPgr22rfvoU8AYFdEkCo75I274IABHZGQDNQbRSDLiHu+vvOLO33ovbJuQ7l5MJkVN+kJq8RNC42rr8bk1RCPRVe27PCAQr1bCLDJCPc5jNYG814EJ9Tjz9RvoSmDPH9XDypp7vE68XH7DYC+7GD6lENm1CvO84QHmJN/xdeq2nRoATqtn3/50l++tevYva5l86stxXMqbD/qkYAl7fJFyYFlFvfG+sQiXcF/PG1Oef+D3mKJh5SkF/VrJwnOwgik0vb/weFT+UQ6EYAod6NG09BAAKBE9AMVBHqIl2uuyoeFdiXUE9Fl+Szqo9FqCdfnvjqOqPWs1z1kWB/uDeZxLmfzdq7tI/XYi6A7Dtfe8VgIbdBfdb37MaHkFfTI3ia/i/wLpzmeSaQCNQvi9vSrUI9XXn+XbeN3bpVvrzKXnmfQqg760iFutm+L7Jtb92W/hipl5V/z86hOghYCCDUCQ0IQGCSBDQDVYS6Q6irzuDuSainq+m1kwbBJJOLvlruyYPiXfP+z9dP6Qvea+t7PDuSXo2Xj+3afBP196gvzGTKuxHsftD0f1OKC2xxE0jEdFl4Z+fKS+fRU0FtTq67z5tnZSvb5+uzrBcnDFxCXVNHJtTLq+SW8+gNkxNuipSAwG4JINR3y5u3QQACOyKgGaj6EOq/kUwuSeCWFz6ure3p35vYdcsf4BbFXcOvs0CsOaNe34ZxXPvVlZ+v5zr7YdOA6vb3+hsKGs6o+zJmwHo0/d+Ar6fqAAnYz2ZnYj3XaLOF/dsvf5VfnSvqDQnkUkH8ZS5JXfyGwhZ8h1BX1ZEJ9dJugSy5Xfk6NoR6gNFJk2wEEOrEBgQgMEkCmoGqSgzaVmfJ+p7Gjb+s7/lAbPRNdjbdrG4eHuafWsnq7tlsJV+YXeSHYk7Ty4XJyO9jJ3lngdgmTtqUneS31m1UZz/kqi5uf09vCqjsHkGou71BiTERaJtETVW+aRv5ZlW+jlK2gq8T6tGm9upnuwugdls/Qn1M4UlbLQQQ6oQGBCAwSQL9hXrzNVpN94SPCWh/4VMnaPqzaxLq26zpLtL+tpF349TyKjaEusuhzTkVVEc1zCvyOz4uV3Jg8gQUz6xHzUCoO51BgVERqN/6bjNBk/W9IYFcVK1tNbzwSp1Qr6zKl5qNUB9VKNLYFgQQ6i1gURQCEBgPgf5CfZt53Izi5eUpyxydG+gPcBZ614S7CdB8K+sFzUZMd2SnyvpegRXQ1vf1o9yeHsu5yRRXSDwWicTTlVxWksa1FPW7DpRA3tc/XiNDttvfl8tnubsrJpxLTEWoB+JymuGJQL2Yra9ckxndXUZzZ7nrjLqmjpZb30km5ymiqGYXBBDqu6DMOyAAgZ0TqB/Qm2uxbq/l8yptzupOzE5piRJEZVuoTy7yWbe34smUkqXZTi2yMgP7KE+3+e+HJzE7q0f96S98bIKmLbu2vqnDviehvomNpE0rE1fPaSr3xfJG7jfXg0UaMU1mFhVcmBiKAy/bsl8S9aOOrGEa3/56tqgd1SMQhV0ZtSvxCPVhPEiteyNQdz1bTWOybOl1V5ttilsTyBUrrM28HrXjf74wV6kdyRfZ9nTJrnWrXgvnrqOdUHdPMOzNQ7wYAhUCCHWCAgIQmCSB9tc4JRiKWcSjf4nuvD6Vq/jsc/KJhH11RXScGIcT6m3Z1WfZzlOt+qbMfF9CvdyO6Iz8O7m8ODZXrdWckF+bmLouxlQs2i/vzcSPjxP144xFTau7fa9rjkCYHQ9nByYJYvR9vnmRp/dl7gh1jT8oMyICliRqyZb4vB2lDPA1Jmbi2WZ9QeSX70Av3LXuWlFP39BYRzuhrjp7PyK30tRpE0CoT9u/WAeB2RLQbH2fLZyc4XDSRQGcdJyGLoUfdIThpOM0r1LV1ep52R9Zq9tKPz8uWBwqAYR6qJ6hXRCAQC8CDFR1+OAEJx2BMEoRrzo/wEnHaXallNvfJ8tl7vZP1rHTNQyhPl3fYhkEZk2AgarO/XCCk45AGKWIV50f4KTjNL9Syar6H1//KD8cfTEz89MdBeV71WdGAXPHRQChPi5/0VoIQEBJgIGqDhSc4KQjEEYp4lXnBzjpOFEKAhCAQMgEEOohe4e2QQACnQkwUNWhgxOcdATCKEW86vwAJx0nSkEAAhAImQBCPWTv0DYIQKAzAQaqOnRwgpOOQBiliFedH+Ck40QpCEAAAiETQKiH7B3aBgEIdCbAQFWHDk5w0hEIoxTxqvMDnHScKAUBCEAgZAII9ZC9Q9sgAIHOBKKBKh8IQAACcyXw+vo6V9OxGwIQgMAkCCDUJ+FGjIAABMoEWFHSxQSc4KQjEEYp4lXnBzjpOFEKAhCAQMgEEOohe4e2QQACnQkwUNWhgxOcdATCKEW86vwAJx0nSkEAAhAImQBCPWTv0DYIQKAzAQaqOnRwgpOOQBiliFedH+Ck40QpCEAAAiETQKiH7B3aBgEIdCbAQFWHDk5w0hEIoxTxqvMDnHScKAUBCEAgZAII9ZC9Q9sgAIHOBBio6tDBCU46AmGUIl51foCTjhOlIAABCIRMAKEesndoGwQg0JkAA1UdOjjBSUcgjFLEq84PcNJxohQEIACBkAkg1EP2Dm2DAAQ6E2CgqkMHJzjpCIRRinjV+QFOOk6UggAEIBAyAYR6yN6hbRCAQGcCDFR16OAEJx2BMEoRrzo/wEnHiVIQgAAEQiaAUA/ZO7QNAhDoTICBqg4dnOCkIxBGKeJV5wc46ThRCgIQgEDIBBDqIXuHtkEAAp0JuAeqa7k9OpDzZ5Hlw6t8/M71qrblXfWF8fd6To9y9uZY7ixNXNy8yNP7t+lf07KLG3l5ei/Zv2aPrh/P5PTqTp4N5/izWMjy8t7wLpfMv6wLa9OOI9Pm6D2mLQ+mLU6XtnCBK57W60e5Pr0y788MjUxdyOG7S7l4/13KpYHV+laODs7lWZby8PJRGvG0aPfUinr1QxlOFJsFf+UKGP/eXl/JJxNgiYcXslheyr3pOJoieV/8XZz21S7eCwEIQAACegIIdT0rSkIAAiMi0DRQXT/eyulxJIqSj0uoty0/IkzSLNSNcFkeVsw5PPkoRnumH7v4fDw7kuNEOaf1rOQu/u9IS+fF/vYVXVmvb4/kIJp1STwqD69G7Hp0RFM8be2MxPlSDmNkK1mlom5rq43VdmLCxsWjKaOuyqsfNnFZ9JdR4GaiJxc/m0mUKHCXEn8lVnebSaG6Cap9Q0ao79sDvB8CEIBAfwII9f4MqQECEAiQgG2guhFVZsB9c7iScyOmmoR62/IBomhsUqNQt6ySFyu0iE+zkv7m2KzJl+vYiJ6F3Lw8yWZh3lTamXVW59KIqDsjoHYo1DcTBJG4u6+uhEcr7Q/rt2ZiI1p3rWf1ePbGTGiIvFk+yN/urR1jCzGv7bV9r334QaR+wiTzT2USJYq7U5H7mp0kXo3uUBlCvQM0HoEABCAQGAGEemAOoTkQgIAfAk0CdGUEUbRl1ex9j1dh7UI9EVb68n7avstahhLqmbipY1svfLqzTuqLhP+lrA6iLfu7WlHPjghUJx3qfVgV6luBWX90YJexMIZ3uXaAlCd/tH7YlKtMMGXiXevjMCgi1MPwA62AAAQg0IcAQr0PPZ6FAASCJWBdeVuv5e3b5FRpJpKaVtTXLcsHC8TSsGGEeiZgLYI5FUPlFeROrNPVdKPSzbn5dXq2fjdCPYsf/Up4Sajnz6V73qo/tjjUtrcuXnv7If/yzCebnSBd8iVorRmuHEJ9OLbUDAEIQGBXBBDquyLNeyAAgZ0S0AxUNUK9OIZ3rcDv1EQvLxtUqNu2zlfEUNUUnW8yEZUJc8cEQQ9idZyadg3Uvyov1A/kOk7YN66V2h4IvTzq3w+lBIg1k0jb/AfGVw/36TEGL+YMVomm/xvs5VQMAQhAAAJeCCDUvWCkEghAIDQCmoGqTgxuLWtbPjQmde1xbSWuJpM7lJMLk1F9k+q65ty1S4i7/m4aqmKdiqpKsradbH3vsiU6Y2XO0huJHuXVcyUyHEMM7bKN1Xjt44fycYPtbQdFv6xN/oSDOI9A/InyW1xeBC3YNf3fLv3GuyAAAQhAoD0BhHp7ZjwBAQiMgIBmoKoSgzlb25YfASZH1vd6C4oiZl9CPRVokhdbu1xR7yMQzdVe5hq3KEc9Qr3dt8SrUC9lfc9uJLAdZYivGjRqfXMBnyWBYDuLhimt6f+GeTO1QgACEICALwIIdV8kqQcCEAiKgGag2lZ4ty0fFBBLYwbZ+u5aMXf93bTVyTpdTa+dNAh+Rd1MLtyLnGb3pnM+Xf1V8SvUi6+NrtZ7p1gpjwX7lRHssWL3nw9BDaOhoKb/8/Ee6oAABCAAgeEIINSHY0vNEIDAHgloBqpOMVhqf9vyezRf/ep9CvXfGq4ja2Ztu498HyvqbVbFi+3Obh2oXGGn9t78CtqFenc/bE5xtMJZf5VbqyoGLKzp/wZ8PVVDAAIQgIAHAgh1DxCpAgIQCI+AZqDaVni3LR8elWqLBhHq2X3httVGS9b3fOsaWWdn080K6OFh/qmVrMzB72ezpXmxPBRzml4uzDV83YRYkdUw2cbDFnshxu8wfuhoqSKOO9bc+zFN/9f7JVQAAQhAAAKDEkCoD4qXyiEAgX0R0AxU2wrvtuX3ZXub9w4j1JuvtNJkS29ivc3C7bLU37bkWk6tr1er2wlgS2Dmsm2efx/ODx14ItQ7QOMRCEAAAhDQEkCoa0lRDgIQGBUBhLrOXcMI9e0Z88q2bqW47TYpssut7wnfbNIhsvPhPp8NP+W/fpTb9ds0Q7hly34q+EI976yLpN2Usn2vvfihzoQoXk9Xcnn/MXfTQVQw7PvVNf3fbjzGWyAAAQhAoCsBhHpXcjwHAQgETaB+oGquWbq9ls+rtOmr5IqsKIlUtoX65CI/IG9bPmgktY0bSqjnhYwhLMk1bytJMmub/354ErMrPffxwXr3Qr1oZz6Wsm34Itss4raz9UXB//JUutt7fGE1WIvtAnQrnKOXb7/T7fxQafhmYimuVJZxR1FX52Amd6oYod4JGw9BAAIQCIoAQj0od9AYCEDAF4Hm+8Htb6nPIq4t76v1u6tnOKEe2RDdP30qV/G58eQTCajq6mT0l+0WcJv17qvM9iHUEzvXj9e5TOBbW6Ms4sfm0vnknLxdqIe+Qru7iGx+U7MA9eGHmvevTRxfF+M4Fu2X92ayyUcGBP90Eer+mVIjBCAAgV0TQKjvmjjvgwAEdkKAgaoOM5zgpCMQRiniVecHOOk4UQoCEIBAyAQQ6iF7h7ZBAAKdCTBQ1aGDE5x0BMIoRbzq/AAnHSdKQQACEAiZAEI9ZO/QNghAoDMBBqo6dHCCk45AGKWIV50f4KTjRCkIQAACIRNAqIfsHdoGAQh0JsBAVYcOTnDSEQijFPGq8wOcdJwoBQEIQCBkAgj1kL1D2yAAgc4EGKjq0MEJTjoCYZQiXnV+gJOOE6UgAAEIhEwAoR6yd2gbBCDQmQADVR06OMFJRyCMUsSrzg9w0nGiFAQgAIGQCSDUQ/YObYMABDoTYKCqQwcnOOkIhFGKeNX5AU46TpSCAAQgEDIBhHrI3qFtEIBAZwLRQJUPBCAAgbkSeH19navp2A0BCEBgEgQQ6pNwI0ZAAAJlAqwo6WICTnDSEQijFPGq8wOcdJwoBQEIQCBkAgj1kL1D2yAAgc4EGKjq0MEJTjoCYZQiXnV+gJOOE6UgAAEIhEwAoR6yd2gbBCDQmQADVR06OMFJRyCMUsSrzg9w0nGiFAQgAIGQCSDUQ/YObYMABDoTYKCqQwcnOOkIhFGKeNX5AU46TpSCAAQgEDIBhHrI3qFtEIBAZwIMVHXo4AQnHYEwShGvOj/ASceJUhCAAARCJoBQD9k7tA0CEOhMgIGqDh2c4KQjEEYp4lXnBzjpOFEKAhCAQMgEEOohe4e2QQACnQkwUNWhgxOcdATCKEW86vwAJx0nSkEAAhAImQBCPWTv0DYIQKAzAQaqOnRwgpOOQBiliFedH+Ck40QpCEAAAiETQKiH7B3aBgEIdCbAQFWHDk5w0hEIo9Qu4nV9eyan53fyHJu8lIeXj/Ld2zDs17ZiF5y0baEcBCAAAQh0I4BQ78aNpyAAgcAJuAeqa7k9OpBzMxpfPrzKx+8sBq0f5fb6Sj7dPacDd5HF8kYuL96PbvBeZ2E9p0c5e3MsdxYki5sXeXqfKZe07OJGXp7eS1nPrB+N6LkyoidRPQbeQpaX94Z3k/JR+qbQPtOOI9Pm6D2mLQ+mLTaXdgndIqdt+9x1GaH3aoSeNHOK6lnfHsmBCcjGeHS/cNIl3N/rnuabeH1zHEW+idPlochqJYf3T7IJ957V7+rxwTntyhDeAwEIQGDGBBDqM3Y+pkNgygSaBqrrx1s5PT7fCG+rMNoM2iNxvhQzbJfVXW6lLRZg4/40C/VUrJRMPDz5KO83htsF6OPZkRwnyjkRPbKSu/i/Iy2dF/vbF6h9U2pTJnKTf87EsT/flDk9mlXXz6tc/UbQ3UWzEYulxKZuPidyYWaB3iLUvThjaAH6ePbGxOxCbl7GJ87zgIfm5MWZVAIBCEAAAo0EEOoECAQgMEkCtoHqRjwaQXVzuJJzIxxtQj0Sf6erS7mPhVb22a4228TmmIA2CnXLKnnRPotQzyY5ynWsb+XoIJokqYqhNr4ptCGr00ymLM1Eyt0OhHrFx6m99phgRd3H92JYAZrtlPA/0ePD9jZ1DMupTUsoCwEIQAACXQkg1LuS4zkIQCBoAk0CdLV8iMW32fveaatxtnr7xtTzt3XPfNB4No0bSqgnK5P1xwqyv9Vtoe/im+0q6KWsDqIt+/6FllP4INR3EvBOP/RqBUK9Fz4ehgAEIAABrwQQ6l5xUhkEIBAKAduAfr1ey9u3yfp41zPBCPW8l+tWirNdBxbBnIra8kRHJ9+kq+lmr7I5N79Oz9Yj1EP5HvpuR+33Oo2neGfM21s5Oz1PchWYzyKdlHsra3m8vZarLElctKPm3hzhSLfKFI9ObFtdiFGTr+Ls9Co54lD5hLVdftgJDd9epT4IQAACEKgjgFAnLiAAgUkS0AxUuwr1+hXhcWIcZkXdsc0726resLVe55vyCqhjgqCHi5zxxIp6D7r6R5uEepRH4tkcfcjyBGzySZjkjzer8zhxZJxrIssnkDt+EeVGuDZJB5JnFqbcYZyTQk4u0sSHWWyZfAs3l3Jy8CKfr5IJgYUR/YeHh3Ly0W8CQz2VaklnvPapnGchAAEIQGAnBBDqO8HMSyAAgV0T0AxUdWKw3PLtgH3sCaciy9onkzOCpJDxvkaUu4S46++mXSrfVMTxCIT6JrFezTdiZc7Xu24h2PUXKbD3NQn1qKmF4xSbfAjxXwoJ4rL4Kh6/sG99r49Hd96BfeHT9H/7ahvvhQAEIAABHQGEuo4TpSAAgZER0AxUVWKwZPeUtr27hXq904vJ9/Yl1FNRJflr4cYg1N1fJK5nszNqEurVnBGZ8K7Zlp6K+N8KeSZsQr3tv7t9PHQJTf83dBuoHwIQgAAE+hFAqPfjx9MQgECgBDQD1dZCfbNC5/8M9L4wDrL13bVi7vq7geH0Tf5ccvmqOJLJ7SucBn9v49b3miv/rNetIdQH9xUvgAAEIACBfgQQ6v348TQEIBAoAe9CPUokFWcUDytpVF/8+xTqxdXMoiXNQt225XgEK+q9z+X39fi4n9+PULdNHLH1fdzRROshAAEIhE0AoR62f2gdBCDQkYBfob69O31q25IHEerSLet73tWNQj07mx4n8co/FSUDe84lAzuRC3N9XprYu2MkJY8544lkcr34ah/el1A3Wzzk6OA8jq1yMrkQ+wRnvGqBUw4CEIAABPZGAKG+N/S8GAIQGJKAZqDq3F4dNzA7nxrdCf6SZoAesuW7rXsYoZ5nZq7M2mxNT2xrumM9s77JN7artKrk/B1RcMYTQn0ngbsfob49o75cruRue/eb3FxeyPvvfEwF+cXnjFe/r6M2CEAAAhAYgABCfQCoVAkBCOyfgGag6hbqW8FZzA69f/t8tWAYob7dKmzScMvL0/vtqrbynL/bN3UE2PruKy5CrWc/Qj2NK3PN24u5gi08WV71lqb/C9XHtAsCEIAABBICCHUiAQIQmCSB+oHqWh5vr8Vcl5x80uuwknuQk386ufgo2QJZtvJrLkqWZXGP9YZZvvwYQQ4l1PM7EaKrsZbmXmoDPF2NNP/98FRaaW/nm3rWCPUxxmCbNu9HqJtoNjsmTo+jO9bzH3Pf+kLk8N2lXLz3c8SiDYumsgh1XySpBwIQgMD+CCDU98eeN0MAAgMSaL4f3P7i/HnTjVBvaGeI51PbYB1OqEetMOL77FSu4nPjySeaFLm8306GbNu6zQNga7+bNUK9je/HWHY/Qj23s6aQFyHLiWBWPQrXvO2fLEJ9/z6gBRCAAAT6EkCo9yXI8xCAQJAEGKjq3AInOOkIhFFqL/Ga5h+oF+O2O9b3y2svnPZrMm+HAAQgMDkCCPXJuRSDIACBiAADVV0cwAlOOgJhlNpLvDYmChxuF0cf4nvh1KfBPAsBCEAAAhUCCHWCAgIQmCQBBqo6t8IJTjoCYZTaT7xmYtycSV++k3cnB3JgcLy8fJZPn8y5dXOuw30sY7f89sNptzbyNghAAAJTJ4BQn7qHsQ8CMyXAQFXneDjBSUcgjFJ7i9f1o9xeX8mnXL6FKEniYnFoci5cmASUYeWC3xunMMKEVkAAAhCYBAGE+iTciBEQgECZAANVXUzACU46AmGUIl51foCTjhOlIAABCIRMAKEesndoGwQg0JkAA1UdOjjBSUcgjFLEq84PcNJxohQEIACBkAkg1EP2Dm2DAAQ6E2CgqkMHJzjpCIRRinjV+QFOOk6UggAEIBAyAYR6yN6hbRCAQGcC0UCVDwQgAIG5Enh9fZ2r6dgNAQhAYBIEEOqTcCNGQAACEIAABCAAAQhAAAIQgMBUCCDUp+JJ7IAABCAAAQhAAAIQgAAEIACBSRBAqE/CjRgBAQhAAAIQgAAEIAABCEAAAlMhgFCfiiexAwIQgAAEIAABCEAAAhCAAAQmQQChPgk3YgQEIAABCEAAAhCAAAQgAAEITIUAQn0qnsQOCEAAAhCAAAQgAAEIQAACEJgEAYT6JNyIERCAAAQgAAEIQAACEIAABCAwFQII9al4EjsgAAEIQAACEIAABCAAAQhAYBIEEOqTcCNGQAACEIAABCAAAQhAAAIQgMBUCCDUp+JJ7IAABCAAAQhAAAIQgAAEIACBSRBAqE/CjRgBAQhAAAIQgAAEIAABCEAAAlMhgFCfiiexAwIQUBL4X3n66b/lj69/lB+OvlA+E0KxpN2/yrfy4w9H8oWU/9tnG9O6v/xePvzzv3xWTF0QgAAEIAABCEAAAgoCCHUFJIpAAAITIvDnL/Lh57/k2x9/kKpOTwXqv0W++f6DVDXq9u8bIt84xGz8vt8tAL+ytKOu+C6Funl/I6cJxQOmQAACEIAABCAAgQAJINQDdApNggAEhiPw5y8f5GepEdclQV0n1CvPZs+4xHrFnEzwfyPff/indFuzHnJFPWrwn/LLh5/lr2/HtvNguNihZghAAAIQgAAEILArAgj1XZHmPRCAQAAELOLzP0/y079+FbO8LT/84yleAa9fUa+aEIv331sK7lTga99RD25ooR4tqhvb/sq22gfgPpoAAQhAAAIQgAAEZkIAoT4TR2MmBCAQLRI3bXtPCbUU0f95+kn+9euXLVbGk8mC37+qEcDlbfKFlXrl1vfGOkTi9v7xtTnn/g95itqRmv1Vzcp5Yls0f1F3TICIggAEIAABCEAAAhAYigBCfSiy1AsBCARHQCWqWwr1tivqSfmas+nl9+ZX+ePD9Aqh7qwA3TPHAAACvklEQVQjFeq/mkP4st0FkHD5d3UXQUsWwTmcBkEAAhCAAAQgAIGREkCoj9RxNBsCEGhPQCWq24jTiph2tCkt/+/Kmfb6LOvFiQWXUNfUkQn18iq54kjAqDLkt48NnoAABCAAAQhAAAIhEUCoh+QN2gIBCAxKQHXmWi3U2yaEayifCvgvy5nmC1v1HUJdVUcm1Mtb9S3XsbWdiBjUe1QOAQhAAAIQgAAE5kMAoT4fX2MpBGZPwKdQt25ht1FumgDIVtprn822yeuEerSpvfrZbrWv3/6PUJ/9lwMAEIAABCAAAQgERQChHpQ7aAwEIDAkAV9b361nuq2Nb0ggFz1jWw0v1KcT6pVV+VKbEOpDRhh1QwACEIAABCAAAT8EEOp+OFILBCAwAgI+ksllIr0uS7oNgTt7uubOctcZdU0dLbe+q48BjMD5NBECEIAABCAAAQiMiABCfUTOoqkQgEBPAn2vZ0uFaxuRnq2WVxPIFW2pXaWP3vc/X5ir1I7kC0XWd3cd7YS6e4Khpz94HAIQgAAEIAABCECglgBCncCAAATmQ8CWHK3pjPjmvvMsGZwFVyWTe1IuE882yAXRX74DvXDXumtFPX1DYx3thLrqTP98ogdLIQABCEAAAhCAwM4IINR3hpoXQQAC+ydQFrv7b1G4LdBtpQ+3/bQMAhCAAAQgAAEIjJcAQn28vqPlEIBAFwKa7e9d6p3aM3CamkexBwIQgAAEIACBERFAqI/IWTQVAhDwQSBZVf/j6x/lh6MvfFQ4wTos17VN0FJMggAEIAABCEAAAiESQKiH6BXaBAEIQAACEIAABCAAAQhAAAKzJYBQn63rMRwCEIAABCAAAQhAAAIQgAAEQiSAUA/RK7QJAhCAAAQgAAEIQAACEIAABGZLAKE+W9djOAQgAAEIQAACEIAABCAAAQiESOD/AEU0x3oP0VbrAAAAAElFTkSuQmCC;" parent="bIJiC8jtkmw2KY-kUC_S-213" vertex="1">
          <mxGeometry y="227.44" width="626" height="304.88" as="geometry" />
        </mxCell>
      </root>
    </mxGraphModel>
  </diagram>
</mxfile>
